g pCylinder1
v 0.1670764 0.05544716 -0.5519442
v 0.1670764 0.05312523 0.5521726
v 0.1421237 0.1020975 0.5522757
v 0.1421237 0.1044196 -0.5518411
v 0.1032589 0.1409623 0.5523573
v 0.1032589 0.1432843 -0.5517595
v 0.05428642 0.165915 0.5524098
v 0.05428642 0.168237 -0.551707
v 2.824548E-08 0.174513 0.5524279
v 2.824548E-08 0.1768351 -0.5516889
v -0.05428638 0.165915 0.5524098
v -0.05428638 0.1682368 -0.551707
v -0.1032588 0.1409623 0.5523573
v -0.1032588 0.1432843 -0.5517595
v -0.1421236 0.1020975 0.5522757
v -0.1421236 0.1044196 -0.5518411
v -0.1670763 0.05312523 0.5521726
v -0.1670763 0.05544716 -0.5519442
v -0.1756744 -0.001160965 0.5520585
v -0.1756744 0.001160736 -0.5520585
v -0.1670763 -0.05544731 0.5519442
v -0.1670763 -0.05312523 -0.5521726
v -0.1421236 -0.1044197 0.5518412
v -0.1421236 -0.1020976 -0.5522756
v -0.1032588 -0.1432842 0.5517595
v -0.1032588 -0.1409624 -0.5523573
v -0.05428638 -0.1682369 0.551707
v -0.05428638 -0.1659149 -0.5524098
v 2.824548E-08 -0.1768352 0.551689
v 2.824548E-08 -0.1745131 -0.5524278
v 0.05428639 -0.1682369 0.551707
v 0.05428639 -0.1659149 -0.5524098
v 0.1032589 -0.1432842 0.5517595
v 0.1032589 -0.1409624 -0.5523573
v 0.1421236 -0.1044196 0.5518412
v 0.1421236 -0.1020976 -0.5522756
v 0.1670763 -0.05544731 0.5519442
v 0.1670763 -0.05312523 -0.5521726
v 0.1756744 -0.001160965 0.5520585
v 0.1756744 0.001160736 -0.5520585
v 0.1670764 0.05312523 0.5521726
v 0.1670764 0.05544716 -0.5519442
v 0.1421237 0.1044196 -0.5518411
v 2.824548E-08 0.001160736 -0.5520585
v 0.1670764 0.05544716 -0.5519442
v 0.1032589 0.1432843 -0.5517595
v 0.1756744 0.001160736 -0.5520585
v 0.05428642 0.168237 -0.551707
v 0.1670763 -0.05312523 -0.5521726
v 2.824548E-08 0.1768351 -0.5516889
v 0.1421236 -0.1020976 -0.5522756
v -0.05428638 0.1682368 -0.551707
v 0.1032589 -0.1409624 -0.5523573
v -0.1032588 0.1432843 -0.5517595
v 0.05428639 -0.1659149 -0.5524098
v -0.1421236 0.1044196 -0.5518411
v 2.824548E-08 -0.1745131 -0.5524278
v -0.1670763 0.05544716 -0.5519442
v -0.05428638 -0.1659149 -0.5524098
v -0.1756744 0.001160736 -0.5520585
v -0.1032588 -0.1409624 -0.5523573
v -0.1670763 -0.05312523 -0.5521726
v -0.1421236 -0.1020976 -0.5522756
v 0.1670764 0.05312523 0.5521726
v 0.1393199 0.0441066 0.5521536
v 0.1185126 0.08494309 0.5522395
v 0.1421237 0.1020975 0.5522757
v 0.1756744 -0.001160965 0.5520585
v 0.08610445 0.1173513 0.5523077
v 0.1464895 -0.001160965 0.5520585
v 0.1032589 0.1409623 0.5523573
v 0.1670763 -0.05544731 0.5519442
v 0.04526779 0.1381584 0.5523514
v 0.1393198 -0.04642868 0.5519632
v 0.05428642 0.165915 0.5524098
v 0.1421236 -0.1044196 0.5518412
v 2.824548E-08 0.1453282 0.5523665
v 0.1185125 -0.08726516 0.5518773
v 2.824548E-08 0.174513 0.5524279
v 0.1032589 -0.1432842 0.5517595
v -0.04526774 0.1381584 0.5523514
v 0.08610441 -0.1196733 0.5518093
v -0.05428638 0.165915 0.5524098
v 0.05428639 -0.1682369 0.551707
v -0.0861044 0.1173513 0.5523077
v 0.04526778 -0.1404805 0.5517654
v -0.1032588 0.1409623 0.5523573
v 2.824548E-08 -0.1768352 0.551689
v -0.1185125 0.08494309 0.5522395
v 2.824548E-08 -0.1476504 0.5517504
v -0.1421236 0.1020975 0.5522757
v -0.05428638 -0.1682369 0.551707
v -0.1393198 0.0441066 0.5521536
v -0.04526774 -0.1404805 0.5517654
v -0.1670763 0.05312523 0.5521726
v -0.1032588 -0.1432842 0.5517595
v -0.1464895 -0.001160965 0.5520585
v -0.08610438 -0.1196733 0.5518093
v -0.1756744 -0.001160965 0.5520585
v -0.1421236 -0.1044197 0.5518412
v -0.1393198 -0.04642868 0.5519632
v -0.1185125 -0.08726539 0.5518773
v -0.1670763 -0.05544731 0.5519442
v 0.13932 0.04441132 0.4072397
v 2.824548E-08 -0.000856247 0.4071445
v 0.1185127 0.0852478 0.4073256
v 0.1464895 -0.000856247 0.4071444
v 0.08610438 0.1176559 0.4073936
v 0.1393198 -0.04612381 0.4070492
v 0.04526766 0.1384633 0.4074375
v 0.1185123 -0.08696052 0.4069633
v 2.824548E-08 0.1456328 0.4074525
v 0.08610427 -0.1193686 0.4068953
v -0.04526761 0.1384633 0.4074375
v 0.04526778 -0.1401758 0.4068514
v -0.08610427 0.1176559 0.4073936
v 2.824548E-08 -0.1473456 0.4068364
v -0.1185126 0.0852478 0.4073256
v -0.04526788 -0.1401758 0.4068514
v -0.1393199 0.04441132 0.4072397
v -0.08610446 -0.1193686 0.4068953
v -0.1464895 -0.000856247 0.4071444
v -0.1185124 -0.08696076 0.4069633
v -0.1393197 -0.04612381 0.4070492
v 0.1393199 0.0441066 0.5521536
v 0.13932 0.04441132 0.4072397
v 0.1185127 0.0852478 0.4073256
v 0.1185126 0.08494309 0.5522395
v 0.1464895 -0.001160965 0.5520585
v 0.08610438 0.1176559 0.4073936
v 0.1464895 -0.000856247 0.4071444
v 0.08610445 0.1173513 0.5523077
v 0.1393198 -0.04642868 0.5519632
v 0.04526766 0.1384633 0.4074375
v 0.1393198 -0.04612381 0.4070492
v 0.04526779 0.1381584 0.5523514
v 0.1185125 -0.08726516 0.5518773
v 2.824548E-08 0.1456328 0.4074525
v 0.1185123 -0.08696052 0.4069633
v 2.824548E-08 0.1453282 0.5523665
v 0.08610441 -0.1196733 0.5518093
v -0.04526761 0.1384633 0.4074375
v 0.08610427 -0.1193686 0.4068953
v -0.04526774 0.1381584 0.5523514
v 0.04526778 -0.1404805 0.5517654
v -0.08610427 0.1176559 0.4073936
v 0.04526778 -0.1401758 0.4068514
v -0.0861044 0.1173513 0.5523077
v 2.824548E-08 -0.1476504 0.5517504
v -0.1185126 0.0852478 0.4073256
v 2.824548E-08 -0.1473456 0.4068364
v -0.1185125 0.08494309 0.5522395
v -0.04526774 -0.1404805 0.5517654
v -0.1393199 0.04441132 0.4072397
v -0.04526788 -0.1401758 0.4068514
v -0.1393198 0.0441066 0.5521536
v -0.08610438 -0.1196733 0.5518093
v -0.1464895 -0.000856247 0.4071444
v -0.08610446 -0.1193686 0.4068953
v -0.1464895 -0.001160965 0.5520585
v -0.1185125 -0.08726539 0.5518773
v -0.1393197 -0.04612381 0.4070492
v -0.1185124 -0.08696076 0.4069633
v -0.1393198 -0.04642868 0.5519632
vt 0.375 0.3125
vt 0.375 0.6884766
vt 0.3874512 0.6884766
vt 0.3874512 0.3125
vt 0.3999023 0.6884766
vt 0.3999023 0.3125
vt 0.4125977 0.6884766
vt 0.4125977 0.3125
vt 0.4250488 0.6884766
vt 0.4250488 0.3125
vt 0.4375 0.6884766
vt 0.4375 0.3125
vt 0.4499512 0.6884766
vt 0.4499512 0.3125
vt 0.4624023 0.6884766
vt 0.4624023 0.3125
vt 0.4750977 0.6884766
vt 0.4750977 0.3125
vt 0.4875488 0.6884766
vt 0.4875488 0.3125
vt 0.5 0.6884766
vt 0.5 0.3125
vt 0.5126953 0.6884766
vt 0.5126953 0.3125
vt 0.5249023 0.6884766
vt 0.5249023 0.3125
vt 0.5375977 0.6884766
vt 0.5375977 0.3125
vt 0.5498047 0.6884766
vt 0.5498047 0.3125
vt 0.5625 0.6884766
vt 0.5625 0.3125
vt 0.5751953 0.6884766
vt 0.5751953 0.3125
vt 0.5874023 0.6884766
vt 0.5874023 0.3125
vt 0.6000977 0.6884766
vt 0.6000977 0.3125
vt 0.6123047 0.6884766
vt 0.6123047 0.3125
vt 0.625 0.6884766
vt 0.625 0.3125
vt 0.6264648 0.06439209
vt 0.5 0.1500244
vt 0.6484375 0.1079712
vt 0.5917969 0.02984619
vt 0.65625 0.15625
vt 0.5483398 0.007648468
vt 0.6484375 0.2045898
vt 0.5 -5.960464E-08
vt 0.6264648 0.2480469
vt 0.4516602 0.007648468
vt 0.5917969 0.2827148
vt 0.4082031 0.02984619
vt 0.5483398 0.3049316
vt 0.3735352 0.06439209
vt 0.5 0.3125
vt 0.3513184 0.1079712
vt 0.4516602 0.3049316
vt 0.34375 0.15625
vt 0.4082031 0.2827148
vt 0.3513184 0.2045898
vt 0.3735352 0.2480469
vt 0.6484375 0.8920898
vt 0.6484375 0.8920898
vt 0.6264648 0.9355469
vt 0.6264648 0.9355469
vt 0.65625 0.84375
vt 0.5917969 0.9702148
vt 0.65625 0.84375
vt 0.5917969 0.9702148
vt 0.6484375 0.7954102
vt 0.5483398 0.9921875
vt 0.6484375 0.7954102
vt 0.5483398 0.9921875
vt 0.6264648 0.7519531
vt 0.5 1
vt 0.6264648 0.7519531
vt 0.5 1
vt 0.5917969 0.7172852
vt 0.4516602 0.9921875
vt 0.5917969 0.7172852
vt 0.4516602 0.9921875
vt 0.5483398 0.6953125
vt 0.4082031 0.9702148
vt 0.5483398 0.6953125
vt 0.4082031 0.9702148
vt 0.5 0.6875
vt 0.3735352 0.9355469
vt 0.5 0.6875
vt 0.3735352 0.9355469
vt 0.4516602 0.6953125
vt 0.3513184 0.8920898
vt 0.4516602 0.6953125
vt 0.3513184 0.8920898
vt 0.4082031 0.7172852
vt 0.34375 0.84375
vt 0.4082031 0.7172852
vt 0.34375 0.84375
vt 0.3735352 0.7519531
vt 0.3513184 0.7954102
vt 0.3735352 0.7519531
vt 0.3513184 0.7954102
vt 0.6484375 0.8920898
vt 0.5 0.8374023
vt 0.6264648 0.9355469
vt 0.65625 0.84375
vt 0.5917969 0.9702148
vt 0.6484375 0.7954102
vt 0.5483398 0.9921875
vt 0.6264648 0.7519531
vt 0.5 1
vt 0.5917969 0.7172852
vt 0.4516602 0.9921875
vt 0.5483398 0.6953125
vt 0.4082031 0.9702148
vt 0.5 0.6875
vt 0.3735352 0.9355469
vt 0.4516602 0.6953125
vt 0.3513184 0.8920898
vt 0.4082031 0.7172852
vt 0.34375 0.84375
vt 0.3735352 0.7519531
vt 0.3513184 0.7954102
vt 0.6484375 0.8920898
vt 0.6484375 0.8920898
vt 0.6264648 0.9355469
vt 0.6264648 0.9355469
vt 0.65625 0.84375
vt 0.5917969 0.9702148
vt 0.65625 0.84375
vt 0.5917969 0.9702148
vt 0.6484375 0.7954102
vt 0.5483398 0.9921875
vt 0.6484375 0.7954102
vt 0.5483398 0.9921875
vt 0.6264648 0.7519531
vt 0.5 1
vt 0.6264648 0.7519531
vt 0.5 1
vt 0.5917969 0.7172852
vt 0.4516602 0.9921875
vt 0.5917969 0.7172852
vt 0.4516602 0.9921875
vt 0.5483398 0.6953125
vt 0.4082031 0.9702148
vt 0.5483398 0.6953125
vt 0.4082031 0.9702148
vt 0.5 0.6875
vt 0.3735352 0.9355469
vt 0.5 0.6875
vt 0.3735352 0.9355469
vt 0.4516602 0.6953125
vt 0.3513184 0.8920898
vt 0.4516602 0.6953125
vt 0.3513184 0.8920898
vt 0.4082031 0.7172852
vt 0.34375 0.84375
vt 0.4082031 0.7172852
vt 0.34375 0.84375
vt 0.3735352 0.7519531
vt 0.3513184 0.7954102
vt 0.3735352 0.7519531
vt 0.3513184 0.7954102
vn 0.9511719 0.309082 0.000649929
vn 0.9511719 0.309082 0.000649929
vn 0.809082 0.5878906 0.001235962
vn 0.809082 0.5878906 0.001235962
vn 0.5878906 0.809082 0.001701355
vn 0.5878906 0.809082 0.001701355
vn 0.309082 0.9511719 0.002000809
vn 0.309082 0.9511719 0.002000809
vn -1.072884E-06 1 0.002103806
vn -1.072884E-06 1 0.002103806
vn -0.309082 0.9511719 0.002000809
vn -0.309082 0.9511719 0.002000809
vn -0.5878906 0.809082 0.001701355
vn -0.5878906 0.809082 0.001701355
vn -0.809082 0.5878906 0.001235962
vn -0.809082 0.5878906 0.001235962
vn -0.9511719 0.309082 0.000649929
vn -0.9511719 0.309082 0.000649929
vn -1 0 0
vn -1 0 0
vn -0.9511719 -0.309082 -0.000649929
vn -0.9511719 -0.309082 -0.000649929
vn -0.809082 -0.5878906 -0.001235962
vn -0.809082 -0.5878906 -0.001235962
vn -0.5878906 -0.809082 -0.001701355
vn -0.5878906 -0.809082 -0.001701355
vn -0.309082 -0.9511719 -0.002000809
vn -0.309082 -0.9511719 -0.002000809
vn 0 -1 -0.002103806
vn 0 -1 -0.002103806
vn 0.309082 -0.9511719 -0.002000809
vn 0.309082 -0.9511719 -0.002000809
vn 0.5878906 -0.809082 -0.001701355
vn 0.5878906 -0.809082 -0.001701355
vn 0.809082 -0.5878906 -0.001235962
vn 0.809082 -0.5878906 -0.001235962
vn 0.9511719 -0.309082 -0.000649929
vn 0.9511719 -0.309082 -0.000649929
vn 1 -1.192093E-06 0
vn 1 -1.311302E-06 0
vn 0.9511719 0.309082 0.000649929
vn 0.9511719 0.309082 0.000649929
vn 6.556511E-07 0.002103806 -1
vn 0 0.002103806 -1
vn -6.556511E-07 0.002103806 -1
vn 6.556511E-07 0.002103806 -1
vn 0 0.002103806 -1
vn 0 0.002103806 -1
vn 2.980232E-07 0.002103806 -1
vn -6.556511E-07 0.002103806 -1
vn 2.980232E-07 0.002101898 -1
vn 0 0.002103806 -1
vn 0 0.002101898 -1
vn 0 0.002103806 -1
vn -6.556511E-07 0.002103806 -1
vn -9.536743E-07 0.002103806 -1
vn 0 0.002101898 -1
vn 2.980232E-07 0.002103806 -1
vn 6.556511E-07 0.002103806 -1
vn 0 0.002103806 -1
vn 0 0.002101898 -1
vn -6.556511E-07 0.002103806 -1
vn -6.556511E-07 0.002101898 -1
vn 2.384186E-07 -0.002103806 1
vn 2.384186E-07 -0.002103806 1
vn 2.384186E-07 -0.002103806 1
vn 2.384186E-07 -0.002103806 1
vn 0 -0.002103806 1
vn -2.622604E-06 -0.002101898 1
vn 0 -0.002103806 1
vn -2.622604E-06 -0.002101898 1
vn 5.364418E-07 -0.002103806 1
vn 1.072884E-06 -0.002103806 1
vn 5.364418E-07 -0.002103806 1
vn 1.072884E-06 -0.002103806 1
vn 3.159046E-06 -0.002101898 1
vn 0 -0.002103806 1
vn 3.159046E-06 -0.002101898 1
vn 0 -0.002103806 1
vn 0 -0.002105713 1
vn 1.072884E-06 -0.002103806 1
vn 0 -0.002105713 1
vn 1.072884E-06 -0.002103806 1
vn 0 -0.002103806 1
vn 0 -0.002103806 1
vn 0 -0.002103806 1
vn 0 -0.002103806 1
vn 0 -0.002103806 1
vn 2.086163E-06 -0.002101898 1
vn 0 -0.002103806 1
vn 2.086163E-06 -0.002101898 1
vn 1.072884E-06 -0.002105713 1
vn -5.364418E-07 -0.002103806 1
vn 1.072884E-06 -0.002105713 1
vn -5.364418E-07 -0.002103806 1
vn -2.086163E-06 -0.002101898 1
vn 1.311302E-06 -0.002103806 1
vn -2.086163E-06 -0.002101898 1
vn 1.311302E-06 -0.002103806 1
vn 2.086163E-06 -0.002103806 1
vn 0 -0.002103806 1
vn 2.086163E-06 -0.002103806 1
vn 0 -0.002103806 1
vn 0 -0.002103806 1
vn 0 -0.002103806 1
vn -4.768372E-07 -0.002101898 1
vn 2.384186E-07 -0.002103806 1
vn 0 -0.002101898 1
vn 1.132488E-06 -0.002103806 1
vn 1.370907E-06 -0.002103806 1
vn 1.370907E-06 -0.002101898 1
vn 0 -0.002103806 1
vn -1.370907E-06 -0.002103806 1
vn -8.940697E-07 -0.002103806 1
vn -8.940697E-07 -0.002103806 1
vn 4.768372E-07 -0.002101898 1
vn -8.940697E-07 -0.002103806 1
vn 4.768372E-07 -0.002101898 1
vn 0 -0.002103806 1
vn 0 -0.002103806 1
vn 8.940697E-07 -0.002103806 1
vn -2.384186E-07 -0.002103806 1
vn -1.609325E-06 -0.002101898 1
vn -8.940697E-07 -0.002103806 1
vn -0.9511719 -0.309082 -0.000649929
vn -0.9511719 -0.309082 -0.000649929
vn -0.809082 -0.5878906 -0.001235962
vn -0.809082 -0.5878906 -0.001235962
vn -1 1.609325E-06 1.788139E-07
vn -0.5878906 -0.809082 -0.001701355
vn -1 1.847744E-06 1.788139E-07
vn -0.5878906 -0.809082 -0.001701355
vn -0.9511719 0.309082 0.0006504059
vn -0.309082 -0.9511719 -0.001998901
vn -0.9511719 0.309082 0.0006504059
vn -0.309082 -0.9511719 -0.001998901
vn -0.809082 0.5878906 0.001236916
vn 0 -1 -0.002101898
vn -0.809082 0.5878906 0.001236916
vn 0 -1 -0.002101898
vn -0.5878906 0.809082 0.001702309
vn 0.309082 -0.9511719 -0.001998901
vn -0.5878906 0.809082 0.001702309
vn 0.309082 -0.9511719 -0.001998901
vn -0.309082 0.9511719 0.002000809
vn 0.5878906 -0.809082 -0.001701355
vn -0.309082 0.9511719 0.002000809
vn 0.5878906 -0.809082 -0.001701355
vn 0 1 0.002101898
vn 0.809082 -0.5878906 -0.001235962
vn 0 1 0.002101898
vn 0.809082 -0.5878906 -0.001235962
vn 0.309082 0.9511719 0.001998901
vn 0.9511719 -0.309082 -0.0006504059
vn 0.309082 0.9511719 0.001998901
vn 0.9511719 -0.309082 -0.0006504059
vn 0.5878906 0.809082 0.001701355
vn 1 1.072884E-06 1.788139E-07
vn 0.5878906 0.809082 0.001701355
vn 1 8.34465E-07 1.788139E-07
vn 0.809082 0.5878906 0.001236916
vn 0.9511719 0.309082 0.0006508827
vn 0.809082 0.5878906 0.001236916
vn 0.9511719 0.309082 0.0006508827
g pCylinder1_0
f 3/3/3 2/2/2 1/1/1
f 4/4/4 3/3/3 1/1/1
f 5/5/5 3/3/3 4/4/4
f 6/6/6 5/5/5 4/4/4
f 7/7/7 5/5/5 6/6/6
f 8/8/8 7/7/7 6/6/6
f 9/9/9 7/7/7 8/8/8
f 10/10/10 9/9/9 8/8/8
f 11/11/11 9/9/9 10/10/10
f 12/12/12 11/11/11 10/10/10
f 13/13/13 11/11/11 12/12/12
f 14/14/14 13/13/13 12/12/12
f 15/15/15 13/13/13 14/14/14
f 16/16/16 15/15/15 14/14/14
f 17/17/17 15/15/15 16/16/16
f 18/18/18 17/17/17 16/16/16
f 19/19/19 17/17/17 18/18/18
f 20/20/20 19/19/19 18/18/18
f 21/21/21 19/19/19 20/20/20
f 22/22/22 21/21/21 20/20/20
f 23/23/23 21/21/21 22/22/22
f 24/24/24 23/23/23 22/22/22
f 25/25/25 23/23/23 24/24/24
f 26/26/26 25/25/25 24/24/24
f 27/27/27 25/25/25 26/26/26
f 28/28/28 27/27/27 26/26/26
f 29/29/29 27/27/27 28/28/28
f 30/30/30 29/29/29 28/28/28
f 31/31/31 29/29/29 30/30/30
f 32/32/32 31/31/31 30/30/30
f 33/33/33 31/31/31 32/32/32
f 34/34/34 33/33/33 32/32/32
f 35/35/35 33/33/33 34/34/34
f 36/36/36 35/35/35 34/34/34
f 37/37/37 35/35/35 36/36/36
f 38/38/38 37/37/37 36/36/36
f 39/39/39 37/37/37 38/38/38
f 40/40/40 39/39/39 38/38/38
f 41/41/41 39/39/39 40/40/40
f 42/42/42 41/41/41 40/40/40
f 45/45/45 44/44/44 43/43/43
f 43/43/43 44/44/44 46/46/46
f 47/47/47 44/44/44 45/45/45
f 46/46/46 44/44/44 48/48/48
f 49/49/49 44/44/44 47/47/47
f 48/48/48 44/44/44 50/50/50
f 51/51/51 44/44/44 49/49/49
f 50/50/50 44/44/44 52/52/52
f 53/53/53 44/44/44 51/51/51
f 52/52/52 44/44/44 54/54/54
f 55/55/55 44/44/44 53/53/53
f 54/54/54 44/44/44 56/56/56
f 57/57/57 44/44/44 55/55/55
f 56/56/56 44/44/44 58/58/58
f 59/59/59 44/44/44 57/57/57
f 58/58/58 44/44/44 60/60/60
f 61/61/61 44/44/44 59/59/59
f 60/60/60 44/44/44 62/62/62
f 63/63/63 44/44/44 61/61/61
f 62/62/62 44/44/44 63/63/63
f 66/66/66 65/65/65 64/64/64
f 67/67/67 66/66/66 64/64/64
f 64/64/64 65/65/65 68/68/68
f 69/69/69 66/66/66 67/67/67
f 65/65/65 70/70/70 68/68/68
f 71/71/71 69/69/69 67/67/67
f 68/68/68 70/70/70 72/72/72
f 73/73/73 69/69/69 71/71/71
f 70/70/70 74/74/74 72/72/72
f 75/75/75 73/73/73 71/71/71
f 72/72/72 74/74/74 76/76/76
f 77/77/77 73/73/73 75/75/75
f 74/74/74 78/78/78 76/76/76
f 79/79/79 77/77/77 75/75/75
f 76/76/76 78/78/78 80/80/80
f 81/81/81 77/77/77 79/79/79
f 78/78/78 82/82/82 80/80/80
f 83/83/83 81/81/81 79/79/79
f 80/80/80 82/82/82 84/84/84
f 85/85/85 81/81/81 83/83/83
f 82/82/82 86/86/86 84/84/84
f 87/87/87 85/85/85 83/83/83
f 84/84/84 86/86/86 88/88/88
f 89/89/89 85/85/85 87/87/87
f 86/86/86 90/90/90 88/88/88
f 91/91/91 89/89/89 87/87/87
f 88/88/88 90/90/90 92/92/92
f 93/93/93 89/89/89 91/91/91
f 90/90/90 94/94/94 92/92/92
f 95/95/95 93/93/93 91/91/91
f 92/92/92 94/94/94 96/96/96
f 97/97/97 93/93/93 95/95/95
f 94/94/94 98/98/98 96/96/96
f 99/99/99 97/97/97 95/95/95
f 96/96/96 98/98/98 100/100/100
f 101/101/101 97/97/97 99/99/99
f 98/98/98 102/102/102 100/100/100
f 103/103/103 101/101/101 99/99/99
f 100/100/100 102/102/102 103/103/103
f 102/102/102 101/101/101 103/103/103
g pCylinder1_1
f 106/106/106 105/105/105 104/104/104
f 104/104/104 105/105/105 107/107/107
f 108/108/108 105/105/105 106/106/106
f 107/107/107 105/105/105 109/109/109
f 110/110/110 105/105/105 108/108/108
f 109/109/109 105/105/105 111/111/111
f 112/112/112 105/105/105 110/110/110
f 111/111/111 105/105/105 113/113/113
f 114/114/114 105/105/105 112/112/112
f 113/113/113 105/105/105 115/115/115
f 116/116/116 105/105/105 114/114/114
f 115/115/115 105/105/105 117/117/117
f 118/118/118 105/105/105 116/116/116
f 117/117/117 105/105/105 119/119/119
f 120/120/120 105/105/105 118/118/118
f 119/119/119 105/105/105 121/121/121
f 122/122/122 105/105/105 120/120/120
f 121/121/121 105/105/105 123/123/123
f 124/124/124 105/105/105 122/122/122
f 123/123/123 105/105/105 124/124/124
f 127/127/127 126/126/126 125/125/125
f 128/128/128 127/127/127 125/125/125
f 125/125/125 126/126/126 129/129/129
f 130/130/130 127/127/127 128/128/128
f 126/126/126 131/131/131 129/129/129
f 132/132/132 130/130/130 128/128/128
f 129/129/129 131/131/131 133/133/133
f 134/134/134 130/130/130 132/132/132
f 131/131/131 135/135/135 133/133/133
f 136/136/136 134/134/134 132/132/132
f 133/133/133 135/135/135 137/137/137
f 138/138/138 134/134/134 136/136/136
f 135/135/135 139/139/139 137/137/137
f 140/140/140 138/138/138 136/136/136
f 137/137/137 139/139/139 141/141/141
f 142/142/142 138/138/138 140/140/140
f 139/139/139 143/143/143 141/141/141
f 144/144/144 142/142/142 140/140/140
f 141/141/141 143/143/143 145/145/145
f 146/146/146 142/142/142 144/144/144
f 143/143/143 147/147/147 145/145/145
f 148/148/148 146/146/146 144/144/144
f 145/145/145 147/147/147 149/149/149
f 150/150/150 146/146/146 148/148/148
f 147/147/147 151/151/151 149/149/149
f 152/152/152 150/150/150 148/148/148
f 149/149/149 151/151/151 153/153/153
f 154/154/154 150/150/150 152/152/152
f 151/151/151 155/155/155 153/153/153
f 156/156/156 154/154/154 152/152/152
f 153/153/153 155/155/155 157/157/157
f 158/158/158 154/154/154 156/156/156
f 155/155/155 159/159/159 157/157/157
f 160/160/160 158/158/158 156/156/156
f 157/157/157 159/159/159 161/161/161
f 162/162/162 158/158/158 160/160/160
f 159/159/159 163/163/163 161/161/161
f 164/164/164 162/162/162 160/160/160
f 161/161/161 163/163/163 164/164/164
f 163/163/163 162/162/162 164/164/164
