g throwingknife09_grey
v 0.02661543 0.1091717 -1.803578E-05
v 0.01707803 0.1104611 0.001236185
v 0.01727104 0.1113372 -0.005589792
v -0.008689004 0.06883456 -0.006008477
v -0.02921566 0.07555261 -0.001352906
v -0.007152277 0.06920309 0.005356756
v -0.01318834 -0.05017436 0.005168176
v 0.001075128 -0.0553379 0.00560262
v 0.0009131226 -0.05483774 -0.00576261
v 0.0009131226 -0.05483774 -0.00576261
v -0.01306199 -0.05100328 -0.006197054
v -0.01318834 -0.05017436 0.005168176
v 0.01104312 0.0689221 -0.005729088
v 0.01260039 0.06738145 0.005636142
v 0.03343943 0.0781448 -0.0007784666
v 0.009951718 0.05263138 -0.01026934
v -0.006173267 0.05186854 -0.009763696
v -0.005852356 0.05195662 -0.006016392
v -0.01318834 -0.05017436 0.005168176
v -0.01306199 -0.05100328 -0.006197054
v -0.007720071 0.02329543 -0.006050017
v 0.01086058 0.02117191 0.004945527
v 0.01464368 -0.05164578 -0.005540152
v 0.01451772 -0.05327059 0.005825077
v 0.01727104 0.1113372 -0.005589792
v 0.01707803 0.1104611 0.001236185
v 0.02733825 0.115779 -0.000808284
v -0.006506579 0.1195438 0.005461671
v -0.007152277 0.06920309 0.005356756
v -0.02921566 0.07555261 -0.001352906
v -0.02285674 0.1206856 4.914308E-06
v -0.004263306 0.1554049 0.004944636
v -0.01597887 0.1629199 -0.001293877
v -0.0009902496 0.1864785 0.005406777
v -0.001850275 0.2102727 -0.0008609667
v 0.008686291 0.1176602 0.0046032
v 0.01260039 0.06738145 0.005636142
v -0.007152277 0.06920309 0.005356756
v -0.006506579 0.1195438 0.005461671
v 0.00489815 0.1540319 0.005016473
v -0.004263306 0.1554049 0.004944636
v -0.0009902496 0.1864785 0.005406777
v -0.02324122 0.06225603 0.01122845
v -0.006937173 0.06904588 0.009874777
v 0.01281201 0.06717434 0.01058338
v 0.02930015 0.06100316 0.01277306
v 0.001075128 -0.0553379 0.00560262
v 0.01086058 0.02117191 0.004945527
v 0.01451772 -0.05327059 0.005825077
v -0.006436816 0.02363882 0.005315214
v -0.01318834 -0.05017436 0.005168176
v 0.01158108 0.05055762 0.005149325
v -0.004532281 0.05214677 0.005348837
v -0.005852356 0.05195662 -0.006016392
v -0.004532281 0.05214677 0.005348837
v -0.006436816 0.02363882 0.005315214
v -0.007720071 0.02329543 -0.006050017
v -0.01318834 -0.05017436 0.005168176
v -0.004142771 0.05200559 0.009508968
v -0.02324122 0.06225603 0.01122845
v 0.02930015 0.06100316 0.01277306
v 0.01196632 0.0503915 0.009002951
v -0.007152277 0.06920309 0.005356756
v -0.006937173 0.06904588 0.009874777
v -0.02324122 0.06225603 0.01122845
v -0.008689004 0.06883456 -0.006008477
v -0.02324122 0.06225603 0.01122845
v -0.004142771 0.05200559 0.009508968
v -0.004532281 0.05214677 0.005348837
v -0.005852356 0.05195662 -0.006016392
v -0.02508994 0.05975425 -0.01277305
v -0.006173267 0.05186854 -0.009763696
v -0.006937173 0.06904588 0.009874777
v -0.007152277 0.06920309 0.005356756
v 0.01260039 0.06738145 0.005636142
v 0.01281201 0.06717434 0.01058338
v 0.02930015 0.06100316 0.01277306
v 0.02745801 0.06267761 -0.0112296
v 0.01104312 0.0689221 -0.005729088
v 0.01083306 0.06949455 -0.008690084
v -0.008689004 0.06883456 -0.006008477
v 0.02930015 0.06100316 0.01277306
v 0.01158108 0.05055762 0.005149325
v 0.01196632 0.0503915 0.009002951
v 0.02745801 0.06267761 -0.0112296
v 0.01026682 0.05203297 -0.006215906
v 0.009951718 0.05263138 -0.01026934
v -0.005852356 0.05195662 -0.006016392
v -0.004142771 0.05200559 0.009508968
v 0.01196632 0.0503915 0.009002951
v 0.01158108 0.05055762 0.005149325
v -0.004532281 0.05214677 0.005348837
v 0.01451772 -0.05327059 0.005825077
v 0.01464368 -0.05164578 -0.005540152
v 0.001075128 -0.0553379 0.00560262
v 0.0009131226 -0.05483774 -0.00576261
v 0.01524132 0.1613749 -0.0007588427
v -0.0009902496 0.1864785 0.005406777
v -0.001850275 0.2102727 -0.0008609667
v 0.00489815 0.1540319 0.005016473
v 0.02733825 0.115779 -0.000808284
v 0.01707803 0.1104611 0.001236185
v 0.008686291 0.1176602 0.0046032
v 0.01260039 0.06738145 0.005636142
v 0.03343943 0.0781448 -0.0007784666
v 0.02661543 0.1091717 -1.803578E-05
v -0.02921566 0.07555261 -0.001352906
v -0.008689004 0.06883456 -0.006008477
v -0.005613223 0.119234 -0.005903559
v -0.02285674 0.1206856 4.914308E-06
v -0.005578729 0.1552308 -0.006420594
v -0.01597887 0.1629199 -0.001293877
v -0.001088306 0.1866376 -0.005958453
v -0.001850275 0.2102727 -0.0008609667
v -0.007720071 0.02329543 -0.006050017
v -0.01306199 -0.05100328 -0.006197054
v 0.0009131226 -0.05483774 -0.00576261
v 0.009577322 0.02258937 -0.006419702
v 0.01464368 -0.05164578 -0.005540152
v -0.005852356 0.05195662 -0.006016392
v 0.01026682 0.05203297 -0.006215906
v 0.02745801 0.06267761 -0.0112296
v -0.02508994 0.05975425 -0.01277305
v -0.006173267 0.05186854 -0.009763696
v 0.009951718 0.05263138 -0.01026934
v -0.005613223 0.119234 -0.005903559
v -0.008689004 0.06883456 -0.006008477
v 0.01104312 0.0689221 -0.005729088
v 0.009551742 0.1189401 -0.00676203
v 0.003559085 0.1548737 -0.006348758
v -0.005578729 0.1552308 -0.006420594
v -0.001088306 0.1866376 -0.005958453
v 0.02745801 0.06267761 -0.0112296
v 0.01083306 0.06949455 -0.008690084
v -0.02508994 0.05975425 -0.01277305
v -0.008896356 0.0686258 -0.009398159
v 0.01158108 0.05055762 0.005149325
v 0.01026682 0.05203297 -0.006215906
v 0.009577322 0.02258937 -0.006419702
v 0.01086058 0.02117191 0.004945527
v 0.01464368 -0.05164578 -0.005540152
v -0.008689004 0.06883456 -0.006008477
v -0.008896356 0.0686258 -0.009398159
v 0.01083306 0.06949455 -0.008690084
v -0.02508994 0.05975425 -0.01277305
v -0.02324122 0.06225603 0.01122845
v 0.01524132 0.1613749 -0.0007588427
v -0.001850275 0.2102727 -0.0008609667
v -0.001088306 0.1866376 -0.005958453
v 0.003559085 0.1548737 -0.006348758
v 0.02733825 0.115779 -0.000808284
v 0.01727104 0.1113372 -0.005589792
v 0.009551742 0.1189401 -0.00676203
v 0.01104312 0.0689221 -0.005729088
v 0.03343943 0.0781448 -0.0007784666
v 0.02661543 0.1091717 -1.803578E-05
vt 0.9024226 0.7351533
vt 0.90091 0.7346212
vt 0.9009406 0.7342596
vt 0.8921406 0.8023748
vt 0.8888848 0.7996022
vt 0.8923842 0.8022227
vt 0.8914269 0.8514907
vt 0.8936892 0.8536218
vt 0.8936633 0.8534154
vt 0.8936633 0.8534154
vt 0.8914469 0.8518329
vt 0.8914269 0.8514907
vt 0.89527 0.8023387
vt 0.8955171 0.8029745
vt 0.8988222 0.7985324
vt 0.1452655 0.3208538
vt 0.1431034 0.321357
vt 0.1431464 0.321299
vt 0.8914269 0.8514907
vt 0.8914469 0.8518329
vt 0.8922941 0.8211692
vt 0.8952411 0.8220456
vt 0.8958412 0.852098
vt 0.8958212 0.8527685
vt 0.9009406 0.7342596
vt 0.90091 0.7346212
vt 0.9025374 0.7324264
vt 0.8979871 0.6635044
vt 0.8978781 0.6939565
vt 0.894148 0.6712735
vt 0.8952231 0.6439719
vt 0.8983665 0.6418114
vt 0.8963858 0.6184234
vt 0.8989198 0.6230143
vt 0.8987744 0.5897789
vt 0.899579 0.73165
vt 0.9001998 0.7524005
vt 0.897067 0.7516487
vt 0.8971694 0.7308726
vt 0.8989782 0.7166392
vt 0.8975252 0.7160725
vt 0.8980443 0.7032481
vt 0.1447737 0.1861854
vt 0.1469597 0.2291898
vt 0.1496078 0.2304243
vt 0.1518186 0.1870118
vt 0.8983719 0.8030478
vt 0.8999239 0.7714716
vt 0.9005039 0.8021945
vt 0.8971805 0.7704534
vt 0.8961096 0.8009167
vt 0.9000381 0.7593438
vt 0.8974826 0.7586879
vt 0.8925903 0.8093405
vt 0.8927998 0.809262
vt 0.8924977 0.8210275
vt 0.8922941 0.8211692
vt 0.8914269 0.8514907
vt 0.1473344 0.2404307
vt 0.1447737 0.1861854
vt 0.1518186 0.1870118
vt 0.1494944 0.2414954
vt 0.1429721 0.3099222
vt 0.143001 0.3100258
vt 0.1408149 0.3145048
vt 0.1427661 0.3101653
vt 0.1408149 0.3145048
vt 0.1433757 0.3212667
vt 0.1433235 0.3211735
vt 0.1431464 0.321299
vt 0.1405669 0.3161551
vt 0.1431034 0.321357
vt 0.143001 0.3100258
vt 0.1429721 0.3099222
vt 0.1456206 0.3111238
vt 0.145649 0.3112603
vt 0.1478598 0.3153312
vt 0.1476128 0.3142267
vt 0.1454118 0.3101075
vt 0.1453837 0.3097299
vt 0.1427661 0.3101653
vt 0.1478598 0.3153312
vt 0.1454839 0.3222218
vt 0.1455357 0.3223314
vt 0.1476128 0.3142267
vt 0.1453077 0.3212487
vt 0.1452655 0.3208538
vt 0.1431464 0.321299
vt 0.1433757 0.3212667
vt 0.1455357 0.3223314
vt 0.1454839 0.3222218
vt 0.1433235 0.3211735
vt 0.8958212 0.8527685
vt 0.8958412 0.852098
vt 0.8936892 0.8536218
vt 0.8936633 0.8534154
vt 0.9016638 0.5631645
vt 0.8989198 0.5668209
vt 0.8987744 0.5335855
vt 0.8999152 0.5864486
vt 0.9037091 0.5907465
vt 0.9019744 0.6128054
vt 0.9005557 0.6084504
vt 0.9012174 0.6388651
vt 0.9047405 0.6135121
vt 0.9035867 0.5947434
vt 0.894148 0.6712735
vt 0.8976183 0.6941795
vt 0.8981383 0.6636918
vt 0.8952231 0.6439719
vt 0.8981441 0.6419167
vt 0.8963858 0.6184234
vt 0.8989033 0.6229182
vt 0.8987744 0.5897789
vt 0.8969769 0.7705951
vt 0.8961297 0.8012588
vt 0.8983461 0.8028413
vt 0.8997204 0.7708865
vt 0.9005239 0.8015239
vt 0.8972731 0.7587664
vt 0.8998297 0.7587349
vt 0.1515717 0.1859073
vt 0.1445258 0.1878358
vt 0.1470622 0.240521
vt 0.1492243 0.2400178
vt 0.8973112 0.7310005
vt 0.8968233 0.7518008
vt 0.8999528 0.7517646
vt 0.8997163 0.7311218
vt 0.8987659 0.7162917
vt 0.8973166 0.7161443
vt 0.8980288 0.7031825
vt 0.1515717 0.1859073
vt 0.1493425 0.2288939
vt 0.1445258 0.1878358
vt 0.1466972 0.2294669
vt 0.8953553 0.8099179
vt 0.8951469 0.809309
vt 0.8950376 0.8214605
vt 0.8952411 0.8220456
vt 0.8958412 0.852098
vt 0.1427661 0.3101653
vt 0.1427383 0.310303
vt 0.1453837 0.3097299
vt 0.1405669 0.3161551
vt 0.1408149 0.3145048
vt 0.9016638 0.5631645
vt 0.8987744 0.5335855
vt 0.8989033 0.5667248
vt 0.8996889 0.5859392
vt 0.9037091 0.5907465
vt 0.902007 0.6122754
vt 0.9007021 0.6076762
vt 0.9009541 0.637933
vt 0.9047405 0.6135121
vt 0.9035867 0.5947434
vn 0.1496122 0.980157 0.1300329
vn 0.1496122 0.980157 0.1300329
vn 0.1496122 0.980157 0.1300329
vn -0.2957107 -0.9526447 0.07087479
vn -0.2957107 -0.9526447 0.0708748
vn -0.2957107 -0.9526447 0.0708748
vn -0.303969 -0.9525753 0.01425428
vn -0.05192142 -0.9977913 -0.0414333
vn -0.0645927 -0.9971603 -0.03871997
vn -0.0645927 -0.9971603 -0.03871997
vn -0.303969 -0.9525753 0.01425428
vn -0.303969 -0.9525753 0.01425428
vn 0.4079975 -0.8955999 -0.1773101
vn 0.4079975 -0.8955999 -0.1773101
vn 0.4079975 -0.8955999 -0.1773101
vn 0.2633322 -0.9572459 -0.119735
vn -0.2056469 -0.9786257 -0.001075749
vn -0.2709078 -0.9619512 0.03548172
vn -0.9956131 0.08120026 0.04648558
vn -0.9956131 0.08120026 0.04648558
vn -0.9942029 0.07348791 0.07848597
vn 0.9968238 0.0207881 -0.07687791
vn 0.9973887 0.05801174 -0.04301652
vn 0.9973887 0.05801173 -0.04301652
vn 0.4416898 -0.8913603 -0.1019162
vn 0.4416898 -0.8913603 -0.1019162
vn 0.4416898 -0.8913603 -0.1019162
vn -0.333405 0.03539141 0.9421191
vn -0.3006119 0.007443227 0.9537176
vn -0.3006119 0.007443228 0.9537176
vn -0.332459 0.03457816 0.9424837
vn -0.4341905 0.08200856 0.8970804
vn -0.478355 0.09364454 0.8731593
vn -0.5467536 0.1118463 0.8297897
vn -0.5467535 0.1118463 0.8297897
vn 0.02406201 0.006488104 0.9996895
vn 0.01760608 0.00979315 0.999797
vn 0.01760608 0.00979315 0.999797
vn 0.02550016 0.005751717 0.9996582
vn 0.01535368 -0.00433704 0.9998727
vn 0.01043891 -0.006183482 0.9999264
vn -0.009912009 -0.01382619 0.9998553
vn -0.0229688 -0.01095609 0.9996761
vn -0.01867747 0.2634148 0.9645018
vn -0.01867747 0.2634149 0.9645018
vn -0.0236221 -0.06620661 0.9975262
vn -0.01993132 0.006147502 0.9997825
vn 0.01737573 0.001241988 0.9998482
vn -0.01822395 0.01091721 0.9997744
vn 0.01612647 -5.10219E-05 0.9998699
vn -0.03016655 0.0007681365 0.9995446
vn 0.01644561 -0.00484608 0.999853
vn 0.01644561 -0.00484608 0.999853
vn -0.9915572 0.06529517 0.1120308
vn -0.9915572 0.06529517 0.1120308
vn -0.9941002 0.07308496 0.08014651
vn -0.9942029 0.07348791 0.07848597
vn -0.9956131 0.08120026 0.04648558
vn -0.02532548 -0.2563955 0.9662402
vn -0.0229688 -0.01095609 0.9996761
vn -0.0236221 -0.06620661 0.9975262
vn -0.02532548 -0.2563955 0.9662402
vn -0.2552284 0.9667782 0.01408497
vn -0.145408 0.9884216 0.04335389
vn -0.4324299 0.9014859 -0.01810449
vn -0.3155136 0.9489202 0.001222019
vn -0.4323463 -0.8966902 0.09499141
vn -0.2863069 -0.9581058 -0.007843758
vn -0.3407402 -0.9394714 0.03591162
vn -0.2709078 -0.9619512 0.03548172
vn -0.4222399 -0.9009115 0.1003596
vn -0.2056469 -0.9786257 -0.001075749
vn -0.145408 0.9884216 0.04335389
vn -0.2552284 0.9667782 0.01408497
vn 0.2671097 0.9628572 0.03947706
vn 0.2321504 0.972244 0.02911605
vn 0.3524186 0.9347163 0.04589691
vn 0.3581415 0.9316479 0.06137473
vn 0.247896 0.9650854 0.08460444
vn 0.182743 0.9776062 0.1043607
vn -0.3155136 0.9489202 0.001222019
vn 0.5217364 -0.8449564 -0.1176432
vn 0.3233171 -0.9424052 -0.08566517
vn 0.2619409 -0.9628528 -0.06558458
vn 0.5154341 -0.8474392 -0.1271783
vn 0.3580002 -0.9260276 -0.1196193
vn 0.2633322 -0.9572459 -0.119735
vn -0.2709078 -0.9619512 0.03548172
vn -0.2863069 -0.9581058 -0.007843758
vn 0.2619409 -0.9628528 -0.06558458
vn 0.3233171 -0.9424052 -0.08566517
vn -0.3407402 -0.9394714 0.03591162
vn 0.1906667 -0.9773651 -0.09167176
vn 0.1906667 -0.9773651 -0.09167176
vn -0.05192142 -0.9977913 -0.0414333
vn -0.0645927 -0.9971603 -0.03871997
vn 0.4624424 0.110936 0.8796819
vn 0.5472546 0.1516846 0.8231065
vn 0.3369768 0.9373332 -0.08861802
vn 0.415929 0.08631048 0.905292
vn 0.3280655 0.04880124 0.9433935
vn 0.3391091 0.04933221 0.9394527
vn 0.3985124 0.03590378 0.9164599
vn 0.2591698 0.05436591 0.9643005
vn 0.2282597 0.05496646 0.9720474
vn 0.2282597 0.05496646 0.9720474
vn -0.2609913 0.040543 -0.9644894
vn -0.2609913 0.040543 -0.9644894
vn -0.313166 0.02622649 -0.9493362
vn -0.3126546 0.02636857 -0.9495008
vn -0.402156 0.04817689 -0.9143028
vn -0.4301553 0.0792312 -0.8992713
vn -0.4659204 0.1201075 -0.876637
vn 0.3369768 0.9373332 -0.08861802
vn -0.01627965 -0.0003773879 -0.9998674
vn 0.03100314 -0.000251013 -0.9995192
vn 0.02085391 -0.005541366 -0.9997672
vn -0.01713224 -0.001080711 -0.9998527
vn 0.01865568 -0.01057223 -0.9997701
vn -0.01693978 0.004830964 -0.9998448
vn -0.01693978 0.004830964 -0.9998448
vn 0.01920231 0.07345859 -0.9971133
vn 0.01919127 0.07385915 -0.997084
vn 0.02624886 -0.2140959 -0.9764599
vn 0.02624886 -0.2140959 -0.9764599
vn -0.02449475 -0.00657227 -0.9996784
vn -0.01664408 -0.008977385 -0.9998212
vn -0.01664408 -0.008977383 -0.9998212
vn -0.02394055 -0.006742087 -0.9996907
vn -0.01454942 0.003608436 -0.9998877
vn -0.01248106 0.00450185 -0.999912
vn 0.008388397 0.01351345 -0.9998735
vn 0.01920231 0.07345859 -0.9971133
vn 0.01062391 0.3529918 -0.9355661
vn 0.01919127 0.07385915 -0.997084
vn 0.01062391 0.3529918 -0.9355661
vn 0.992937 -0.0229918 -0.1163936
vn 0.992937 -0.0229918 -0.1163936
vn 0.9964611 0.01419796 -0.08284754
vn 0.9968238 0.0207881 -0.07687791
vn 0.9973887 0.05801174 -0.04301652
vn -0.3155136 0.9489202 0.001222019
vn -0.2837009 0.9588291 0.01267317
vn 0.182743 0.9776062 0.1043607
vn -0.4460836 0.8944951 -0.02979815
vn -0.4324299 0.9014859 -0.01810449
vn 0.4398986 0.120484 -0.8899285
vn 0.481365 0.1328272 -0.8663975
vn 0.4813651 0.1328272 -0.8663975
vn 0.4153253 0.1130075 -0.9026263
vn 0.3849058 0.104152 -0.9170605
vn 0.2533475 0.02846367 -0.9669566
vn 0.1781656 0.02924397 -0.9835659
vn 0.2866764 0.009751716 -0.9579779
vn 0.3117987 0.01416953 -0.9500425
vn 0.3117987 0.01416953 -0.9500425
g throwingknife09_grey_0
f 3/3/3 2/2/2 1/1/1
f 6/6/6 5/5/5 4/4/4
f 9/9/9 8/8/8 7/7/7
f 12/12/12 11/11/11 10/10/10
f 15/15/15 14/14/14 13/13/13
f 18/18/18 17/17/17 16/16/16
f 21/21/21 20/20/20 19/19/19
f 24/24/24 23/23/23 22/22/22
f 27/27/27 26/26/26 25/25/25
f 30/30/30 29/29/29 28/28/28
f 28/28/28 31/31/31 30/30/30
f 31/31/31 28/28/28 32/32/32
f 32/32/32 33/33/33 31/31/31
f 33/33/33 32/32/32 34/34/34
f 33/33/33 34/34/34 35/35/35
f 38/38/38 37/37/37 36/36/36
f 36/36/36 39/39/39 38/38/38
f 39/39/39 36/36/36 40/40/40
f 39/39/39 40/40/40 41/41/41
f 41/41/41 40/40/40 42/42/42
f 45/45/45 44/44/44 43/43/43
f 43/43/43 46/46/46 45/45/45
f 49/49/49 48/48/48 47/47/47
f 48/48/48 50/50/50 47/47/47
f 51/51/51 47/47/47 50/50/50
f 50/50/50 48/48/48 52/52/52
f 52/52/52 53/53/53 50/50/50
f 56/56/56 55/55/55 54/54/54
f 54/54/54 57/57/57 56/56/56
f 56/56/56 57/57/57 58/58/58
f 61/61/61 60/60/60 59/59/59
f 59/59/59 62/62/62 61/61/61
f 65/65/65 64/64/64 63/63/63
f 65/65/65 63/63/63 66/66/66
f 69/69/69 68/68/68 67/67/67
f 70/70/70 69/69/69 67/67/67
f 67/67/67 71/71/71 70/70/70
f 72/72/72 70/70/70 71/71/71
f 75/75/75 74/74/74 73/73/73
f 73/73/73 76/76/76 75/75/75
f 76/76/76 77/77/77 75/75/75
f 78/78/78 75/75/75 77/77/77
f 78/78/78 79/79/79 75/75/75
f 78/78/78 80/80/80 79/79/79
f 81/81/81 79/79/79 80/80/80
f 84/84/84 83/83/83 82/82/82
f 85/85/85 82/82/82 83/83/83
f 83/83/83 86/86/86 85/85/85
f 86/86/86 87/87/87 85/85/85
f 87/87/87 86/86/86 88/88/88
f 91/91/91 90/90/90 89/89/89
f 89/89/89 92/92/92 91/91/91
f 95/95/95 94/94/94 93/93/93
f 96/96/96 94/94/94 95/95/95
f 99/99/99 98/98/98 97/97/97
f 100/100/100 97/97/97 98/98/98
f 101/101/101 97/97/97 100/100/100
f 100/100/100 102/102/102 101/101/101
f 102/102/102 100/100/100 103/103/103
f 103/103/103 104/104/104 102/102/102
f 102/102/102 104/104/104 105/105/105
f 105/105/105 106/106/106 102/102/102
f 109/109/109 108/108/108 107/107/107
f 107/107/107 110/110/110 109/109/109
f 111/111/111 109/109/109 110/110/110
f 110/110/110 112/112/112 111/111/111
f 113/113/113 111/111/111 112/112/112
f 114/114/114 113/113/113 112/112/112
f 117/117/117 116/116/116 115/115/115
f 115/115/115 118/118/118 117/117/117
f 119/119/119 117/117/117 118/118/118
f 118/118/118 115/115/115 120/120/120
f 120/120/120 121/121/121 118/118/118
f 124/124/124 123/123/123 122/122/122
f 122/122/122 125/125/125 124/124/124
f 128/128/128 127/127/127 126/126/126
f 126/126/126 129/129/129 128/128/128
f 130/130/130 129/129/129 126/126/126
f 126/126/126 131/131/131 130/130/130
f 130/130/130 131/131/131 132/132/132
f 135/135/135 134/134/134 133/133/133
f 135/135/135 136/136/136 134/134/134
f 139/139/139 138/138/138 137/137/137
f 137/137/137 140/140/140 139/139/139
f 141/141/141 139/139/139 140/140/140
f 144/144/144 143/143/143 142/142/142
f 143/143/143 145/145/145 142/142/142
f 142/142/142 145/145/145 146/146/146
f 149/149/149 148/148/148 147/147/147
f 147/147/147 150/150/150 149/149/149
f 150/150/150 147/147/147 151/151/151
f 151/151/151 152/152/152 150/150/150
f 153/153/153 150/150/150 152/152/152
f 153/153/153 152/152/152 154/154/154
f 152/152/152 155/155/155 154/154/154
f 152/152/152 156/156/156 155/155/155
