g torii_pillar_left_pillar_left_base_pillar1_base
v -4.866781 0.21015 0
v -4.897773 1.827414 -0.195679
v -4.897773 0.21015 -0.195679
v -4.866781 1.827414 0
v -4.897774 0.21015 0.195679
v -4.880604 1.860784 0
v -4.910919 1.860784 -0.191408
v -4.897774 1.827414 0.195679
v -4.987718 0.21015 0.372204
v -4.91092 1.860784 0.191408
v -4.880604 1.860784 0
v -4.987718 1.827414 0.372204
v -5.127808 0.21015 0.512295
v -4.998901 1.860784 0.36408
v -4.91092 1.860784 0.191408
v -5.127808 1.827414 0.512295
v -5.304333 0.21015 0.602239
v -5.135933 1.860784 0.501113
v -4.998901 1.860784 0.36408
v -5.304333 1.827414 0.602239
v -5.500013 0.21015 0.633232
v -5.308605 1.860784 0.589093
v -5.135933 1.860784 0.501113
v -5.500013 1.827414 0.633232
v -5.695692 0.21015 0.602239
v -5.500013 1.860784 0.619409
v -5.308605 1.860784 0.589093
v -5.695692 1.827414 0.602239
v -5.872217 0.21015 0.512295
v -5.69142 1.860784 0.589093
v -5.500013 1.860784 0.619409
v -5.872217 1.827414 0.512295
v -6.012308 0.21015 0.372204
v -5.864093 1.860784 0.501113
v -5.69142 1.860784 0.589093
v -6.012308 1.827414 0.372204
v -6.102252 0.21015 0.195679
v -6.001125 1.860784 0.36408
v -5.864093 1.860784 0.501113
v -6.102252 1.827414 0.195679
v -6.133245 0.21015 0
v -6.089106 1.860784 0.191408
v -6.001125 1.860784 0.36408
v -6.133245 1.827414 0
v -6.102252 0.21015 -0.195679
v -6.119422 1.860784 0
v -6.089106 1.860784 0.191408
v -6.102252 1.827414 -0.195679
v -6.012308 0.21015 -0.372204
v -6.089106 1.860784 -0.191408
v -6.119422 1.860784 0
v -6.012308 1.827414 -0.372204
v -5.872217 0.21015 -0.512295
v -6.001125 1.860784 -0.36408
v -6.089106 1.860784 -0.191408
v -5.872217 1.827414 -0.512295
v -5.695692 0.21015 -0.602239
v -5.864093 1.860784 -0.501113
v -6.001125 1.860784 -0.36408
v -5.695692 1.827414 -0.602239
v -5.500013 0.21015 -0.633232
v -5.691421 1.860784 -0.589093
v -5.864093 1.860784 -0.501113
v -5.500013 1.827414 -0.633232
v -5.304333 0.21015 -0.602239
v -5.500013 1.860784 -0.61941
v -5.691421 1.860784 -0.589093
v -5.304333 1.827414 -0.602239
v -5.127808 0.21015 -0.512295
v -5.308605 1.860784 -0.589093
v -5.500013 1.860784 -0.61941
v -5.127808 1.827414 -0.512295
v -4.987717 0.21015 -0.372205
v -5.135933 1.860784 -0.501113
v -5.308605 1.860784 -0.589093
v -4.987717 1.827414 -0.372205
v -4.897773 0.21015 -0.195679
v -4.897773 1.827414 -0.195679
v -4.910919 1.860784 -0.191408
v -4.9989 1.860784 -0.36408
v -4.9989 1.860784 -0.36408
v -5.135933 1.860784 -0.501113
v -4.910919 1.860784 -0.191408
v -4.880604 1.860784 0
v -4.913974 1.874607 0
v -4.942656 1.874607 -0.181096
v -5.500013 1.874607 0
v -4.942657 1.874607 0.181096
v -4.880604 1.860784 0
v -4.91092 1.860784 0.191408
v -5.025898 1.874607 0.344465
v -4.91092 1.860784 0.191408
v -4.998901 1.860784 0.36408
v -5.155548 1.874607 0.474116
v -5.025897 1.874607 -0.344465
v -4.998901 1.860784 0.36408
v -5.135933 1.860784 0.501113
v -4.9989 1.860784 -0.36408
v -4.910919 1.860784 -0.191408
v -5.318917 1.874607 0.557356
v -5.135933 1.860784 0.501113
v -5.308605 1.860784 0.589093
v -5.500013 1.874607 0.586039
v -5.308605 1.860784 0.589093
v -5.500013 1.860784 0.619409
v -5.681109 1.874607 0.557356
v -5.500013 1.860784 0.619409
v -5.69142 1.860784 0.589093
v -5.844478 1.874607 0.474116
v -5.69142 1.860784 0.589093
v -5.864093 1.860784 0.501113
v -5.974128 1.874607 0.344465
v -5.864093 1.860784 0.501113
v -6.001125 1.860784 0.36408
v -6.057369 1.874607 0.181096
v -6.001125 1.860784 0.36408
v -6.089106 1.860784 0.191408
v -6.086052 1.874607 0
v -6.057369 1.874607 -0.181096
v -6.089106 1.860784 0.191408
v -6.119422 1.860784 0
v -6.119422 1.860784 0
v -6.089106 1.860784 -0.191408
v -5.974128 1.874607 -0.344465
v -6.089106 1.860784 -0.191408
v -6.001125 1.860784 -0.36408
v -5.844478 1.874607 -0.474116
v -6.001125 1.860784 -0.36408
v -5.864093 1.860784 -0.501113
v -5.681109 1.874607 -0.557357
v -5.864093 1.860784 -0.501113
v -5.691421 1.860784 -0.589093
v -5.500013 1.874607 -0.586039
v -5.691421 1.860784 -0.589093
v -5.500013 1.860784 -0.61941
v -5.318917 1.874607 -0.557357
v -5.500013 1.860784 -0.61941
v -5.308605 1.860784 -0.589093
v -5.155548 1.874607 -0.474116
v -5.308605 1.860784 -0.589093
v -5.135933 1.860784 -0.501113
v -5.135933 1.860784 -0.501113
v -4.9989 1.860784 -0.36408
v -4.987717 0.21015 -0.372205
v -5.500013 0.21015 0
v -4.897773 0.21015 -0.195679
v -5.127808 0.21015 -0.512295
v -4.866781 0.21015 0
v -5.304333 0.21015 -0.602239
v -4.897774 0.21015 0.195679
v -5.500013 0.21015 -0.633232
v -4.987718 0.21015 0.372204
v -5.695692 0.21015 -0.602239
v -5.127808 0.21015 0.512295
v -5.872217 0.21015 -0.512295
v -5.304333 0.21015 0.602239
v -6.012308 0.21015 -0.372204
v -5.500013 0.21015 0.633232
v -6.102252 0.21015 -0.195679
v -5.695692 0.21015 0.602239
v -6.133245 0.21015 0
v -5.872217 0.21015 0.512295
v -6.102252 0.21015 0.195679
v -6.012308 0.21015 0.372204
vt 0.6123047 0.3125
vt 0.625 0.6777344
vt 0.625 0.3125
vt 0.6123047 0.6777344
vt 0.6000977 0.3125
vt 0.612793 0.6884766
vt 0.625 0.6884766
vt 0.6000977 0.6777344
vt 0.5874023 0.3125
vt 0.6000977 0.6884766
vt 0.6123047 0.6884766
vt 0.5874023 0.6777344
vt 0.5751953 0.3125
vt 0.5878906 0.6884766
vt 0.6000977 0.6884766
vt 0.5751953 0.6777344
vt 0.5625 0.3125
vt 0.5751953 0.6884766
vt 0.5874023 0.6884766
vt 0.5625 0.6777344
vt 0.5498047 0.3125
vt 0.5625 0.6884766
vt 0.574707 0.6884766
vt 0.5498047 0.6777344
vt 0.5375977 0.3125
vt 0.550293 0.6884766
vt 0.5625 0.6884766
vt 0.5375977 0.6777344
vt 0.5249023 0.3125
vt 0.5375977 0.6884766
vt 0.5498047 0.6884766
vt 0.5249023 0.6777344
vt 0.5126953 0.3125
vt 0.5253906 0.6884766
vt 0.5375977 0.6884766
vt 0.5126953 0.6777344
vt 0.5 0.3125
vt 0.5126953 0.6884766
vt 0.5249023 0.6884766
vt 0.5 0.6777344
vt 0.4875488 0.3125
vt 0.5 0.6884766
vt 0.512207 0.6884766
vt 0.4875488 0.6777344
vt 0.4750977 0.3125
vt 0.487793 0.6884766
vt 0.4997559 0.6884766
vt 0.4750977 0.6777344
vt 0.4624023 0.3125
vt 0.4750977 0.6884766
vt 0.4873047 0.6884766
vt 0.4624023 0.6777344
vt 0.4499512 0.3125
vt 0.4626465 0.6884766
vt 0.4748535 0.6884766
vt 0.4499512 0.6777344
vt 0.4375 0.3125
vt 0.4501953 0.6884766
vt 0.4624023 0.6884766
vt 0.4375 0.6777344
vt 0.4250488 0.3125
vt 0.4377441 0.6884766
vt 0.4499512 0.6884766
vt 0.4250488 0.6777344
vt 0.4125977 0.3125
vt 0.425293 0.6884766
vt 0.4372559 0.6884766
vt 0.4125977 0.6777344
vt 0.3999023 0.3125
vt 0.4125977 0.6884766
vt 0.4248047 0.6884766
vt 0.3999023 0.6777344
vt 0.3874512 0.3125
vt 0.4001465 0.6884766
vt 0.4123535 0.6884766
vt 0.3874512 0.6777344
vt 0.375 0.3125
vt 0.375 0.6777344
vt 0.3752441 0.6884766
vt 0.3874512 0.6884766
vt 0.3876953 0.6884766
vt 0.3999023 0.6884766
vt 0.6474609 0.8916016
vt 0.6552734 0.8442383
vt 0.6445313 0.8432617
vt 0.6376953 0.8881836
vt 0.5 0.8374023
vt 0.6376953 0.7988281
vt 0.6552734 0.84375
vt 0.6474609 0.7958984
vt 0.6171875 0.7583008
vt 0.6474609 0.7954102
vt 0.6254883 0.7529297
vt 0.5849609 0.7260742
vt 0.6171875 0.9282227
vt 0.6254883 0.7524414
vt 0.5913086 0.7182617
vt 0.6254883 0.9345703
vt 0.6474609 0.8916016
vt 0.5449219 0.7055664
vt 0.5908203 0.7182617
vt 0.5483398 0.6962891
vt 0.5 0.6987305
vt 0.5478516 0.6962891
vt 0.5004883 0.6884766
vt 0.4553223 0.7055664
vt 0.4997559 0.6884766
vt 0.4523926 0.6962891
vt 0.4150391 0.7260742
vt 0.4519043 0.6962891
vt 0.4091797 0.7177734
vt 0.3830566 0.7583008
vt 0.4086914 0.7182617
vt 0.3747559 0.7524414
vt 0.3625488 0.7988281
vt 0.3745117 0.7529297
vt 0.3525391 0.7954102
vt 0.3554688 0.8432617
vt 0.3625488 0.8881836
vt 0.3525391 0.7958984
vt 0.3449707 0.8432617
vt 0.3449707 0.84375
vt 0.3522949 0.8911133
vt 0.3830566 0.9282227
vt 0.3525391 0.8916016
vt 0.3742676 0.9345703
vt 0.4150391 0.9604492
vt 0.3747559 0.9350586
vt 0.4084473 0.96875
vt 0.4553223 0.980957
vt 0.4089355 0.9692383
vt 0.4516602 0.9912109
vt 0.5 0.987793
vt 0.4521484 0.9912109
vt 0.4997559 0.9990234
vt 0.5449219 0.980957
vt 0.5 0.9990234
vt 0.5473633 0.9912109
vt 0.5849609 0.9604492
vt 0.5478516 0.9912109
vt 0.5908203 0.9692383
vt 0.5913086 0.9692383
vt 0.6254883 0.9350586
vt 0.6264648 0.06439209
vt 0.5 0.1500244
vt 0.6484375 0.1079712
vt 0.5917969 0.02984619
vt 0.65625 0.15625
vt 0.5483398 0.007648468
vt 0.6484375 0.2045898
vt 0.5 0
vt 0.6264648 0.2480469
vt 0.4516602 0.007648468
vt 0.5917969 0.2827148
vt 0.4082031 0.02984619
vt 0.5483398 0.3049316
vt 0.3735352 0.06439209
vt 0.5 0.3125
vt 0.3513184 0.1079712
vt 0.4516602 0.3049316
vt 0.34375 0.15625
vt 0.4082031 0.2827148
vt 0.3513184 0.2045898
vt 0.3735352 0.2480469
vn 1 0 0
vn 0.9511719 0.007896423 -0.309082
vn 0.9511719 0 -0.309082
vn 1 0.007896423 0
vn 0.9511719 0 0.309082
vn 0.9140625 0.3786621 -0.1447754
vn 0.9140625 0.3786621 -0.1447754
vn 0.9511719 0.007896423 0.309082
vn 0.809082 0 0.5878906
vn 0.9140625 0.3786621 0.1447754
vn 0.9140625 0.3786621 0.1447754
vn 0.809082 0.007896423 0.5878906
vn 0.5878906 0 0.809082
vn 0.824707 0.3786621 0.420166
vn 0.824707 0.3786621 0.420166
vn 0.5878906 0.007896423 0.809082
vn 0.309082 0 0.9511719
vn 0.6542969 0.3786621 0.6542969
vn 0.6542969 0.3786621 0.6542969
vn 0.309082 0.007896423 0.9511719
vn 0 0 1
vn 0.420166 0.3786621 0.824707
vn 0.420166 0.3786621 0.824707
vn 0 0.007896423 1
vn -0.309082 0 0.9511719
vn 0.1447754 0.3786621 0.9140625
vn 0.1447754 0.3786621 0.9140625
vn -0.309082 0.007896423 0.9511719
vn -0.5878906 0 0.809082
vn -0.1447754 0.3786621 0.9140625
vn -0.1447754 0.3786621 0.9140625
vn -0.5878906 0.007896423 0.809082
vn -0.809082 0 0.5878906
vn -0.420166 0.3786621 0.824707
vn -0.420166 0.3786621 0.824707
vn -0.809082 0.007896423 0.5878906
vn -0.9511719 0 0.309082
vn -0.6542969 0.3786621 0.6542969
vn -0.6542969 0.3786621 0.6542969
vn -0.9511719 0.007896423 0.309082
vn -1 0 0
vn -0.824707 0.3786621 0.420166
vn -0.824707 0.3786621 0.420166
vn -1 0.007896423 0
vn -0.9511719 0 -0.309082
vn -0.9140625 0.3786621 0.1447754
vn -0.9140625 0.3786621 0.1447754
vn -0.9511719 0.007896423 -0.309082
vn -0.809082 0 -0.5878906
vn -0.9140625 0.3786621 -0.1447754
vn -0.9140625 0.3786621 -0.1447754
vn -0.809082 0.007896423 -0.5878906
vn -0.5878906 0 -0.809082
vn -0.824707 0.3786621 -0.420166
vn -0.824707 0.3786621 -0.420166
vn -0.5878906 0.007896423 -0.809082
vn -0.309082 0 -0.9511719
vn -0.6542969 0.3786621 -0.6542969
vn -0.6542969 0.3786621 -0.6542969
vn -0.309082 0.007896423 -0.9511719
vn 0 0 -1
vn -0.420166 0.3786621 -0.824707
vn -0.420166 0.3786621 -0.824707
vn 0 0.007896423 -1
vn 0.309082 0 -0.9511719
vn -0.1447754 0.3786621 -0.9140625
vn -0.1447754 0.3786621 -0.9140625
vn 0.309082 0.007896423 -0.9511719
vn 0.5878906 0 -0.809082
vn 0.1447754 0.3786621 -0.9140625
vn 0.1447754 0.3786621 -0.9140625
vn 0.5878906 0.007896423 -0.809082
vn 0.809082 0 -0.5878906
vn 0.420166 0.3786621 -0.824707
vn 0.420166 0.3786621 -0.824707
vn 0.809082 0.007896423 -0.5878906
vn 0.9511719 0 -0.309082
vn 0.9511719 0.007896423 -0.309082
vn 0.824707 0.3786621 -0.420166
vn 0.824707 0.3786621 -0.420166
vn 0.6542969 0.3786621 -0.6542969
vn 0.6542969 0.3786621 -0.6542969
vn 0.3820801 0.9223633 -0.06048584
vn 0.3820801 0.9223633 -0.06048584
vn 0.05160522 0.9985352 0
vn 0.04907227 0.9985352 -0.01594543
vn 0 1 0
vn 0.04907227 0.9985352 0.01594543
vn 0.3820801 0.9223633 0.06048584
vn 0.3820801 0.9223633 0.06048584
vn 0.04174805 0.9985352 0.03033447
vn 0.3444824 0.9223633 0.1755371
vn 0.3444824 0.9223633 0.1755371
vn 0.03033447 0.9985352 0.04174805
vn 0.04174805 0.9985352 -0.03033447
vn 0.2734375 0.9223633 0.2734375
vn 0.2734375 0.9223633 0.2734375
vn 0.3444824 0.9223633 -0.1755371
vn 0.3444824 0.9223633 -0.1755371
vn 0.01594543 0.9985352 0.04907227
vn 0.1755371 0.9223633 0.3444824
vn 0.1755371 0.9223633 0.3444824
vn 0 0.9985352 0.05160522
vn 0.06048584 0.9223633 0.3820801
vn 0.06048584 0.9223633 0.3820801
vn -0.01594543 0.9985352 0.04907227
vn -0.06048584 0.9223633 0.3820801
vn -0.06048584 0.9223633 0.3820801
vn -0.03033447 0.9985352 0.04174805
vn -0.1755371 0.9223633 0.3444824
vn -0.1755371 0.9223633 0.3444824
vn -0.04174805 0.9985352 0.03033447
vn -0.2734375 0.9223633 0.2734375
vn -0.2734375 0.9223633 0.2734375
vn -0.04907227 0.9985352 0.01594543
vn -0.3444824 0.9223633 0.1755371
vn -0.3444824 0.9223633 0.1755371
vn -0.05160522 0.9985352 0
vn -0.04907227 0.9985352 -0.01594543
vn -0.3820801 0.9223633 0.06048584
vn -0.3820801 0.9223633 0.06048584
vn -0.3820801 0.9223633 -0.06048584
vn -0.3820801 0.9223633 -0.06048584
vn -0.04174805 0.9985352 -0.03033447
vn -0.3444824 0.9223633 -0.1755371
vn -0.3444824 0.9223633 -0.1755371
vn -0.03033447 0.9985352 -0.04174805
vn -0.2734375 0.9223633 -0.2734375
vn -0.2734375 0.9223633 -0.2734375
vn -0.01594543 0.9985352 -0.04907227
vn -0.1755371 0.9223633 -0.3444824
vn -0.1755371 0.9223633 -0.3444824
vn 0 0.9985352 -0.05160522
vn -0.06048584 0.9223633 -0.3820801
vn -0.06048584 0.9223633 -0.3820801
vn 0.01594543 0.9985352 -0.04907227
vn 0.06048584 0.9223633 -0.3820801
vn 0.06048584 0.9223633 -0.3820801
vn 0.03033447 0.9985352 -0.04174805
vn 0.1755371 0.9223633 -0.3444824
vn 0.1755371 0.9223633 -0.3444824
vn 0.2734375 0.9223633 -0.2734375
vn 0.2734375 0.9223633 -0.2734375
vn 0 -1 0
vn 0 -1 0
vn 0 -1 0
vn 0 -1 0
vn 0 -1 0
vn 0 -1 0
vn 0 -1 0
vn 0 -1 0
vn 0 -1 0
vn 0 -1 0
vn 0 -1 0
vn 0 -1 0
vn 0 -1 0
vn 0 -1 0
vn 0 -1 0
vn 0 -1 0
vn 0 -1 0
vn 0 -1 0
vn 0 -1 0
vn 0 -1 0
vn 0 -1 0
g torii_pillar_left_pillar_left_base_pillar1_base_0
f 3/3/3 2/2/2 1/1/1
f 2/2/2 4/4/4 1/1/1
f 1/1/1 4/4/4 5/5/5
f 6/6/6 4/4/4 2/2/2
f 7/7/7 6/6/6 2/2/2
f 4/4/4 8/8/8 5/5/5
f 5/5/5 8/8/8 9/9/9
f 8/8/8 4/4/4 10/10/10
f 4/4/4 11/11/11 10/10/10
f 8/8/8 12/12/12 9/9/9
f 9/9/9 12/12/12 13/13/13
f 12/12/12 8/8/8 14/14/14
f 8/8/8 15/15/15 14/14/14
f 12/12/12 16/16/16 13/13/13
f 13/13/13 16/16/16 17/17/17
f 16/16/16 12/12/12 18/18/18
f 12/12/12 19/19/19 18/18/18
f 16/16/16 20/20/20 17/17/17
f 17/17/17 20/20/20 21/21/21
f 20/20/20 16/16/16 22/22/22
f 16/16/16 23/23/23 22/22/22
f 20/20/20 24/24/24 21/21/21
f 21/21/21 24/24/24 25/25/25
f 24/24/24 20/20/20 26/26/26
f 20/20/20 27/27/27 26/26/26
f 24/24/24 28/28/28 25/25/25
f 25/25/25 28/28/28 29/29/29
f 28/28/28 24/24/24 30/30/30
f 24/24/24 31/31/31 30/30/30
f 28/28/28 32/32/32 29/29/29
f 29/29/29 32/32/32 33/33/33
f 32/32/32 28/28/28 34/34/34
f 28/28/28 35/35/35 34/34/34
f 32/32/32 36/36/36 33/33/33
f 33/33/33 36/36/36 37/37/37
f 36/36/36 32/32/32 38/38/38
f 32/32/32 39/39/39 38/38/38
f 36/36/36 40/40/40 37/37/37
f 37/37/37 40/40/40 41/41/41
f 40/40/40 36/36/36 42/42/42
f 36/36/36 43/43/43 42/42/42
f 40/40/40 44/44/44 41/41/41
f 41/41/41 44/44/44 45/45/45
f 44/44/44 40/40/40 46/46/46
f 40/40/40 47/47/47 46/46/46
f 44/44/44 48/48/48 45/45/45
f 45/45/45 48/48/48 49/49/49
f 48/48/48 44/44/44 50/50/50
f 44/44/44 51/51/51 50/50/50
f 48/48/48 52/52/52 49/49/49
f 49/49/49 52/52/52 53/53/53
f 52/52/52 48/48/48 54/54/54
f 48/48/48 55/55/55 54/54/54
f 52/52/52 56/56/56 53/53/53
f 53/53/53 56/56/56 57/57/57
f 56/56/56 52/52/52 58/58/58
f 52/52/52 59/59/59 58/58/58
f 56/56/56 60/60/60 57/57/57
f 57/57/57 60/60/60 61/61/61
f 60/60/60 56/56/56 62/62/62
f 56/56/56 63/63/63 62/62/62
f 60/60/60 64/64/64 61/61/61
f 61/61/61 64/64/64 65/65/65
f 64/64/64 60/60/60 66/66/66
f 60/60/60 67/67/67 66/66/66
f 64/64/64 68/68/68 65/65/65
f 65/65/65 68/68/68 69/69/69
f 68/68/68 64/64/64 70/70/70
f 64/64/64 71/71/71 70/70/70
f 68/68/68 72/72/72 69/69/69
f 69/69/69 72/72/72 73/73/73
f 72/72/72 68/68/68 74/74/74
f 68/68/68 75/75/75 74/74/74
f 72/72/72 76/76/76 73/73/73
f 73/73/73 76/76/76 77/77/77
f 76/76/76 78/78/78 77/77/77
f 78/78/78 76/76/76 79/79/79
f 76/76/76 80/80/80 79/79/79
f 76/76/76 72/72/72 81/81/81
f 72/72/72 82/82/82 81/81/81
f 85/85/85 84/84/84 83/83/83
f 86/86/86 85/85/85 83/83/83
f 86/86/86 87/87/87 85/85/85
f 85/85/85 87/87/87 88/88/88
f 89/89/89 85/85/85 88/88/88
f 90/90/90 89/89/89 88/88/88
f 88/88/88 87/87/87 91/91/91
f 92/92/92 88/88/88 91/91/91
f 93/93/93 92/92/92 91/91/91
f 91/91/91 87/87/87 94/94/94
f 95/95/95 87/87/87 86/86/86
f 96/96/96 91/91/91 94/94/94
f 97/97/97 96/96/96 94/94/94
f 98/98/98 95/95/95 86/86/86
f 99/99/99 98/98/98 86/86/86
f 94/94/94 87/87/87 100/100/100
f 101/101/101 94/94/94 100/100/100
f 102/102/102 101/101/101 100/100/100
f 100/100/100 87/87/87 103/103/103
f 104/104/104 100/100/100 103/103/103
f 105/105/105 104/104/104 103/103/103
f 103/103/103 87/87/87 106/106/106
f 107/107/107 103/103/103 106/106/106
f 108/108/108 107/107/107 106/106/106
f 106/106/106 87/87/87 109/109/109
f 110/110/110 106/106/106 109/109/109
f 111/111/111 110/110/110 109/109/109
f 109/109/109 87/87/87 112/112/112
f 113/113/113 109/109/109 112/112/112
f 114/114/114 113/113/113 112/112/112
f 112/112/112 87/87/87 115/115/115
f 116/116/116 112/112/112 115/115/115
f 117/117/117 116/116/116 115/115/115
f 115/115/115 87/87/87 118/118/118
f 118/118/118 87/87/87 119/119/119
f 120/120/120 115/115/115 118/118/118
f 121/121/121 120/120/120 118/118/118
f 122/122/122 118/118/118 119/119/119
f 123/123/123 122/122/122 119/119/119
f 119/119/119 87/87/87 124/124/124
f 125/125/125 119/119/119 124/124/124
f 126/126/126 125/125/125 124/124/124
f 124/124/124 87/87/87 127/127/127
f 128/128/128 124/124/124 127/127/127
f 129/129/129 128/128/128 127/127/127
f 127/127/127 87/87/87 130/130/130
f 131/131/131 127/127/127 130/130/130
f 132/132/132 131/131/131 130/130/130
f 130/130/130 87/87/87 133/133/133
f 134/134/134 130/130/130 133/133/133
f 135/135/135 134/134/134 133/133/133
f 133/133/133 87/87/87 136/136/136
f 137/137/137 133/133/133 136/136/136
f 138/138/138 137/137/137 136/136/136
f 136/136/136 87/87/87 139/139/139
f 140/140/140 136/136/136 139/139/139
f 141/141/141 140/140/140 139/139/139
f 139/139/139 87/87/87 95/95/95
f 142/142/142 139/139/139 95/95/95
f 143/143/143 142/142/142 95/95/95
f 146/146/146 145/145/145 144/144/144
f 144/144/144 145/145/145 147/147/147
f 148/148/148 145/145/145 146/146/146
f 147/147/147 145/145/145 149/149/149
f 150/150/150 145/145/145 148/148/148
f 149/149/149 145/145/145 151/151/151
f 152/152/152 145/145/145 150/150/150
f 151/151/151 145/145/145 153/153/153
f 154/154/154 145/145/145 152/152/152
f 153/153/153 145/145/145 155/155/155
f 156/156/156 145/145/145 154/154/154
f 155/155/155 145/145/145 157/157/157
f 158/158/158 145/145/145 156/156/156
f 157/157/157 145/145/145 159/159/159
f 160/160/160 145/145/145 158/158/158
f 159/159/159 145/145/145 161/161/161
f 162/162/162 145/145/145 160/160/160
f 161/161/161 145/145/145 163/163/163
f 164/164/164 145/145/145 162/162/162
f 163/163/163 145/145/145 164/164/164
