g torii_pillar1_pillar_left
v -4.980712 0.155279 -0.168618
v -4.980712 12.78492 -0.168618
v -5.058217 12.78492 -0.32073
v -5.058217 0.155279 -0.32073
v -5.178934 12.78492 -0.441448
v -5.178934 0.155279 -0.441448
v -5.331047 12.78492 -0.518953
v -5.331047 0.155279 -0.518953
v -5.499665 12.78492 -0.545659
v -5.499665 0.155279 -0.545659
v -5.668283 12.78492 -0.518953
v -5.668283 0.155279 -0.518953
v -5.820395 12.78492 -0.441447
v -5.820395 0.155279 -0.441447
v -5.941112 12.78492 -0.32073
v -5.941112 0.155279 -0.32073
v -6.018617 12.78492 -0.168618
v -6.018617 0.155279 -0.168618
v -6.045324 12.78492 0
v -6.045324 0.155279 0
v -6.018617 12.78492 0.168618
v -6.018617 0.155279 0.168618
v -5.941112 12.78492 0.32073
v -5.941112 0.155279 0.32073
v -5.820395 12.78492 0.441447
v -5.820395 0.155279 0.441447
v -5.668283 12.78492 0.518953
v -5.668283 0.155279 0.518953
v -5.499665 12.78492 0.545659
v -5.499665 0.155279 0.545659
v -5.331047 12.78492 0.518952
v -5.331047 0.155279 0.518952
v -5.178935 12.78492 0.441447
v -5.178935 0.155279 0.441447
v -5.058217 12.78492 0.32073
v -5.058217 0.155279 0.32073
v -4.980712 12.78492 0.168618
v -4.980712 0.155279 0.168618
v -4.954006 12.78492 0
v -4.954006 0.155279 0
v -4.980712 12.78492 -0.168618
v -4.980712 0.155279 -0.168618
v -5.058217 0.155279 -0.32073
v -5.499665 0.155279 0
v -4.980712 0.155279 -0.168618
v -5.178934 0.155279 -0.441448
v -4.954006 0.155279 0
v -5.331047 0.155279 -0.518953
v -4.980712 0.155279 0.168618
v -5.499665 0.155279 -0.545659
v -5.058217 0.155279 0.32073
v -5.668283 0.155279 -0.518953
v -5.178935 0.155279 0.441447
v -5.820395 0.155279 -0.441447
v -5.331047 0.155279 0.518952
v -5.941112 0.155279 -0.32073
v -5.499665 0.155279 0.545659
v -6.018617 0.155279 -0.168618
v -5.668283 0.155279 0.518953
v -6.045324 0.155279 0
v -5.820395 0.155279 0.441447
v -6.018617 0.155279 0.168618
v -5.941112 0.155279 0.32073
v -4.980712 12.78492 -0.168618
v -5.499665 12.78492 0
v -5.058217 12.78492 -0.32073
v -4.954006 12.78492 0
v -5.178934 12.78492 -0.441448
v -4.980712 12.78492 0.168618
v -5.331047 12.78492 -0.518953
v -5.058217 12.78492 0.32073
v -5.499665 12.78492 -0.545659
v -5.178935 12.78492 0.441447
v -5.668283 12.78492 -0.518953
v -5.331047 12.78492 0.518952
v -5.820395 12.78492 -0.441447
v -5.499665 12.78492 0.545659
v -5.941112 12.78492 -0.32073
v -5.668283 12.78492 0.518953
v -6.018617 12.78492 -0.168618
v -5.820395 12.78492 0.441447
v -6.045324 12.78492 0
v -5.941112 12.78492 0.32073
v -6.018617 12.78492 0.168618
vt 0.375 0.3125
vt 0.375 0.6884766
vt 0.3874512 0.6884766
vt 0.3874512 0.3125
vt 0.3999023 0.6884766
vt 0.3999023 0.3125
vt 0.4125977 0.6884766
vt 0.4125977 0.3125
vt 0.4250488 0.6884766
vt 0.4250488 0.3125
vt 0.4375 0.6884766
vt 0.4375 0.3125
vt 0.4499512 0.6884766
vt 0.4499512 0.3125
vt 0.4624023 0.6884766
vt 0.4624023 0.3125
vt 0.4750977 0.6884766
vt 0.4750977 0.3125
vt 0.4875488 0.6884766
vt 0.4875488 0.3125
vt 0.5 0.6884766
vt 0.5 0.3125
vt 0.5126953 0.6884766
vt 0.5126953 0.3125
vt 0.5249023 0.6884766
vt 0.5249023 0.3125
vt 0.5375977 0.6884766
vt 0.5375977 0.3125
vt 0.5498047 0.6884766
vt 0.5498047 0.3125
vt 0.5625 0.6884766
vt 0.5625 0.3125
vt 0.5751953 0.6884766
vt 0.5751953 0.3125
vt 0.5874023 0.6884766
vt 0.5874023 0.3125
vt 0.6000977 0.6884766
vt 0.6000977 0.3125
vt 0.6123047 0.6884766
vt 0.6123047 0.3125
vt 0.625 0.6884766
vt 0.625 0.3125
vt 0.6264648 0.06439209
vt 0.5 0.1500244
vt 0.6484375 0.1079712
vt 0.5917969 0.02984619
vt 0.65625 0.15625
vt 0.5483398 0.007648468
vt 0.6484375 0.2045898
vt 0.5 0
vt 0.6264648 0.2480469
vt 0.4516602 0.007648468
vt 0.5917969 0.2827148
vt 0.4082031 0.02984619
vt 0.5483398 0.3049316
vt 0.3735352 0.06439209
vt 0.5 0.3125
vt 0.3513184 0.1079712
vt 0.4516602 0.3049316
vt 0.34375 0.15625
vt 0.4082031 0.2827148
vt 0.3513184 0.2045898
vt 0.3735352 0.2480469
vt 0.6484375 0.8920898
vt 0.5 0.8374023
vt 0.6264648 0.9355469
vt 0.65625 0.84375
vt 0.5917969 0.9702148
vt 0.6484375 0.7954102
vt 0.5483398 0.9921875
vt 0.6264648 0.7519531
vt 0.5 1
vt 0.5917969 0.7172852
vt 0.4516602 0.9921875
vt 0.5483398 0.6953125
vt 0.4082031 0.9702148
vt 0.5 0.6875
vt 0.3735352 0.9355469
vt 0.4516602 0.6953125
vt 0.3513184 0.8920898
vt 0.4082031 0.7172852
vt 0.34375 0.84375
vt 0.3735352 0.7519531
vt 0.3513184 0.7954102
vn 0.9511719 0 -0.309082
vn 0.9511719 0 -0.309082
vn 0.809082 0 -0.5878906
vn 0.809082 0 -0.5878906
vn 0.5878906 0 -0.809082
vn 0.5878906 0 -0.809082
vn 0.309082 0 -0.9511719
vn 0.309082 0 -0.9511719
vn 0 0 -1
vn 0 0 -1
vn -0.309082 0 -0.9511719
vn -0.309082 0 -0.9511719
vn -0.5878906 0 -0.809082
vn -0.5878906 0 -0.809082
vn -0.809082 0 -0.5878906
vn -0.809082 0 -0.5878906
vn -0.9511719 0 -0.309082
vn -0.9511719 0 -0.309082
vn -1 0 0
vn -1 0 0
vn -0.9511719 0 0.309082
vn -0.9511719 0 0.309082
vn -0.809082 0 0.5878906
vn -0.809082 0 0.5878906
vn -0.5878906 0 0.809082
vn -0.5878906 0 0.809082
vn -0.309082 0 0.9511719
vn -0.309082 0 0.9511719
vn 0 0 1
vn 0 0 1
vn 0.309082 0 0.9511719
vn 0.309082 0 0.9511719
vn 0.5878906 0 0.809082
vn 0.5878906 0 0.809082
vn 0.809082 0 0.5878906
vn 0.809082 0 0.5878906
vn 0.9511719 0 0.309082
vn 0.9511719 0 0.309082
vn 1 0 0
vn 1 0 0
vn 0.9511719 0 -0.309082
vn 0.9511719 0 -0.309082
vn 0 -1 0
vn 0 -1 0
vn 0 -1 0
vn 0 -1 0
vn 0 -1 0
vn 0 -1 0
vn 0 -1 0
vn 0 -1 0
vn 0 -1 0
vn 0 -1 0
vn 0 -1 0
vn 0 -1 0
vn 0 -1 0
vn 0 -1 0
vn 0 -1 0
vn 0 -1 0
vn 0 -1 0
vn 0 -1 0
vn 0 -1 0
vn 0 -1 0
vn 0 -1 0
vn 0 1 0
vn 0 1 0
vn 0 1 0
vn 0 1 0
vn 0 1 0
vn 0 1 0
vn 0 1 0
vn 0 1 0
vn 0 1 0
vn 0 1 0
vn 0 1 0
vn 0 1 0
vn 0 1 0
vn 0 1 0
vn 0 1 0
vn 0 1 0
vn 0 1 0
vn 0 1 0
vn 0 1 0
vn 0 1 0
vn 0 1 0
g torii_pillar1_pillar_left_0
f 3/3/3 2/2/2 1/1/1
f 4/4/4 3/3/3 1/1/1
f 5/5/5 3/3/3 4/4/4
f 6/6/6 5/5/5 4/4/4
f 7/7/7 5/5/5 6/6/6
f 8/8/8 7/7/7 6/6/6
f 9/9/9 7/7/7 8/8/8
f 10/10/10 9/9/9 8/8/8
f 11/11/11 9/9/9 10/10/10
f 12/12/12 11/11/11 10/10/10
f 13/13/13 11/11/11 12/12/12
f 14/14/14 13/13/13 12/12/12
f 15/15/15 13/13/13 14/14/14
f 16/16/16 15/15/15 14/14/14
f 17/17/17 15/15/15 16/16/16
f 18/18/18 17/17/17 16/16/16
f 19/19/19 17/17/17 18/18/18
f 20/20/20 19/19/19 18/18/18
f 21/21/21 19/19/19 20/20/20
f 22/22/22 21/21/21 20/20/20
f 23/23/23 21/21/21 22/22/22
f 24/24/24 23/23/23 22/22/22
f 25/25/25 23/23/23 24/24/24
f 26/26/26 25/25/25 24/24/24
f 27/27/27 25/25/25 26/26/26
f 28/28/28 27/27/27 26/26/26
f 29/29/29 27/27/27 28/28/28
f 30/30/30 29/29/29 28/28/28
f 31/31/31 29/29/29 30/30/30
f 32/32/32 31/31/31 30/30/30
f 33/33/33 31/31/31 32/32/32
f 34/34/34 33/33/33 32/32/32
f 35/35/35 33/33/33 34/34/34
f 36/36/36 35/35/35 34/34/34
f 37/37/37 35/35/35 36/36/36
f 38/38/38 37/37/37 36/36/36
f 39/39/39 37/37/37 38/38/38
f 40/40/40 39/39/39 38/38/38
f 41/41/41 39/39/39 40/40/40
f 42/42/42 41/41/41 40/40/40
f 45/45/45 44/44/44 43/43/43
f 43/43/43 44/44/44 46/46/46
f 47/47/47 44/44/44 45/45/45
f 46/46/46 44/44/44 48/48/48
f 49/49/49 44/44/44 47/47/47
f 48/48/48 44/44/44 50/50/50
f 51/51/51 44/44/44 49/49/49
f 50/50/50 44/44/44 52/52/52
f 53/53/53 44/44/44 51/51/51
f 52/52/52 44/44/44 54/54/54
f 55/55/55 44/44/44 53/53/53
f 54/54/54 44/44/44 56/56/56
f 57/57/57 44/44/44 55/55/55
f 56/56/56 44/44/44 58/58/58
f 59/59/59 44/44/44 57/57/57
f 58/58/58 44/44/44 60/60/60
f 61/61/61 44/44/44 59/59/59
f 60/60/60 44/44/44 62/62/62
f 63/63/63 44/44/44 61/61/61
f 62/62/62 44/44/44 63/63/63
f 66/66/66 65/65/65 64/64/64
f 64/64/64 65/65/65 67/67/67
f 68/68/68 65/65/65 66/66/66
f 67/67/67 65/65/65 69/69/69
f 70/70/70 65/65/65 68/68/68
f 69/69/69 65/65/65 71/71/71
f 72/72/72 65/65/65 70/70/70
f 71/71/71 65/65/65 73/73/73
f 74/74/74 65/65/65 72/72/72
f 73/73/73 65/65/65 75/75/75
f 76/76/76 65/65/65 74/74/74
f 75/75/75 65/65/65 77/77/77
f 78/78/78 65/65/65 76/76/76
f 77/77/77 65/65/65 79/79/79
f 80/80/80 65/65/65 78/78/78
f 79/79/79 65/65/65 81/81/81
f 82/82/82 65/65/65 80/80/80
f 81/81/81 65/65/65 83/83/83
f 84/84/84 65/65/65 82/82/82
f 83/83/83 65/65/65 84/84/84
