g pCube5
v 7.705335 3.265837 -4.235756
v 7.705335 3.265837 -9.586224
v 10.01463 2.309296 -9.586224
v 10.01463 2.309295 -4.235756
v 10.97117 -1.817942E-06 20.90514
v 10.01463 2.309294 20.90514
v 10.01463 2.309294 4.010017
v 10.97117 -1.862645E-06 4.010017
v 10.01463 2.309294 20.90514
v 7.705335 3.265836 20.90514
v 7.705335 3.265837 4.010017
v 10.01463 2.309294 4.010017
v 5.39604 2.309295 -4.235756
v 5.39604 2.309296 -9.586224
v 7.705335 3.265837 -9.586224
v 7.705335 3.265837 -4.235756
v 7.705335 3.265836 20.90514
v 5.39604 2.309294 20.90514
v 5.39604 2.309294 4.010017
v 7.705335 3.265837 4.010017
v 10.01463 -2.309298 20.90514
v 10.97117 -1.817942E-06 20.90514
v 10.97117 -1.862645E-06 4.010017
v 10.01463 -2.309298 4.010017
v 10.01463 -2.309298 -4.235756
v 10.01463 -2.309296 -9.586224
v 7.705335 -3.265838 -9.586224
v 7.705335 -3.265839 -4.235756
v 7.705335 3.265837 -9.586224
v 7.705335 3.26584 -20.90514
v 10.01463 2.309297 -20.90514
v 10.01463 2.309296 -9.586224
v 7.705335 -3.265839 -4.235756
v 7.705335 -3.265838 -9.586224
v 5.396039 -2.309296 -9.586224
v 5.396039 -2.309298 -4.235756
v 5.39604 2.309294 20.90514
v 4.439497 -1.519918E-06 20.90514
v 4.439497 -1.564622E-06 4.010017
v 5.39604 2.309294 4.010017
v 7.705335 -3.26584 20.90514
v 10.01463 -2.309298 20.90514
v 10.01463 -2.309298 4.010017
v 7.705335 -3.265839 4.010017
v -9.657095 3.265837 -9.586224
v -9.657095 3.265838 -20.90514
v 7.705335 3.26584 -20.90514
v 7.705335 3.265837 -9.586224
v 4.439497 -1.519918E-06 20.90514
v 5.396039 -2.309298 20.90514
v 5.396039 -2.309298 4.010017
v 4.439497 -1.564622E-06 4.010017
v 5.396039 -2.309298 20.90514
v 7.705335 -3.26584 20.90514
v 7.705335 -3.265839 4.010017
v 5.396039 -2.309298 4.010017
v 10.97117 -1.862645E-06 4.010017
v 10.01463 2.309294 4.010017
v 10.01463 2.309295 -4.235756
v 10.97117 -5.960464E-07 -4.235756
v 10.01463 2.309294 4.010017
v 7.705335 3.265837 4.010017
v 7.705335 3.265837 -4.235756
v 10.01463 2.309295 -4.235756
v -10.96523 2.309297 -9.586224
v -10.96523 2.309297 -20.90514
v -9.657095 3.265838 -20.90514
v -9.657095 3.265837 -9.586224
v 10.01463 -2.309298 4.010017
v 10.97117 -1.862645E-06 4.010017
v 10.97117 -5.960464E-07 -4.235756
v 10.01463 -2.309298 -4.235756
v 5.39604 2.309294 4.010017
v -3.940544 3.265837 4.010017
v 7.705335 3.265837 4.010017
v -5.247442 2.309294 4.010017
v 4.439497 -1.564622E-06 4.010017
v -5.252878 -1.564622E-06 4.010017
v 5.396039 -2.309298 4.010017
v -5.247442 -2.309298 4.010017
v 7.705335 -3.265839 4.010017
v -3.940544 -3.265839 4.010017
v 7.705335 -3.265839 4.010017
v 10.01463 -2.309298 4.010017
v 10.01463 -2.309298 -4.235756
v 7.705335 -3.265839 -4.235756
v 7.705335 3.265837 4.010017
v -3.940544 3.265837 4.010017
v -3.940544 3.265837 -4.235756
v 7.705335 3.265837 -4.235756
v 10.97117 -5.960464E-07 -4.235756
v 10.01463 2.309295 -4.235756
v 10.01463 2.309296 -9.586224
v 10.97117 -8.642673E-07 -9.586224
v 10.01463 -2.309298 -4.235756
v 10.97117 -5.960464E-07 -4.235756
v 10.97117 -8.642673E-07 -9.586224
v 10.01463 -2.309296 -9.586224
v 7.705335 3.265837 -4.235756
v -3.940544 3.265837 -4.235756
v -5.247442 2.309295 -4.235756
v 5.39604 2.309295 -4.235756
v -5.252878 -5.960464E-07 -4.235756
v 4.439497 -5.960464E-07 -4.235756
v -5.247442 -2.309298 -4.235756
v 5.396039 -2.309298 -4.235756
v -3.940544 -3.265839 -4.235756
v 7.705335 -3.265839 -4.235756
v 5.39604 2.309295 -4.235756
v 4.439497 -5.960464E-07 -4.235756
v 4.439497 -5.51343E-07 -9.586224
v 5.39604 2.309296 -9.586224
v 7.705335 -3.265839 -4.235756
v -3.940544 -3.265839 -4.235756
v -3.940544 -3.265839 4.010017
v 7.705335 -3.265839 4.010017
v -3.940544 3.265837 4.010017
v -5.247442 2.309294 4.010017
v -5.247442 2.309295 -4.235756
v -3.940544 3.265837 -4.235756
v 4.439497 -5.960464E-07 -4.235756
v 5.396039 -2.309298 -4.235756
v 5.396039 -2.309296 -9.586224
v 4.439497 -5.51343E-07 -9.586224
v 10.97117 -8.642673E-07 -9.586224
v 10.01463 2.309296 -9.586224
v 10.01463 2.309297 -20.90514
v 10.97117 1.996756E-06 -20.90514
v -5.247442 2.309294 4.010017
v -5.252878 -5.960464E-07 -4.235756
v -5.247442 2.309295 -4.235756
v -5.252878 -1.564622E-06 4.010017
v -5.247442 -2.309298 -4.235756
v -5.247442 -2.309298 4.010017
v 10.01463 -2.309296 -9.586224
v 10.97117 -8.642673E-07 -9.586224
v 10.97117 1.996756E-06 -20.90514
v 10.01463 -2.309294 -20.90514
v -5.247442 -2.309298 4.010017
v -3.940544 -3.265839 4.010017
v -3.940544 -3.265839 -4.235756
v -5.247442 -2.309298 -4.235756
v 5.39604 2.309296 -9.586224
v -9.657095 3.265837 -9.586224
v 7.705335 3.265837 -9.586224
v -10.96523 2.309297 -9.586224
v 4.439497 -5.51343E-07 -9.586224
v -10.97117 -5.51343E-07 -9.586224
v 5.396039 -2.309296 -9.586224
v -10.96523 -2.309296 -9.586224
v 7.705335 -3.265838 -9.586224
v -9.657095 -3.265838 -9.586224
v 7.705335 -3.265838 -9.586224
v 10.01463 -2.309296 -9.586224
v 10.01463 -2.309294 -20.90514
v 7.705335 -3.265836 -20.90514
v 7.705335 -3.265836 -20.90514
v -9.657095 -3.265836 -20.90514
v -9.657095 -3.265838 -9.586224
v 7.705335 -3.265838 -9.586224
v 7.705335 3.26584 -20.90514
v -9.657095 3.265838 -20.90514
v -10.96523 2.309297 -20.90514
v 5.39604 2.309297 -20.90514
v 7.705335 1.996756E-06 -20.90513
v 10.01463 2.309297 -20.90514
v 10.97117 1.996756E-06 -20.90514
v 10.01463 -2.309294 -20.90514
v -10.97117 2.30968E-06 -20.90514
v 7.705335 -3.265836 -20.90514
v 4.439497 2.30968E-06 -20.90514
v -10.96523 -2.309295 -20.90514
v 5.396039 -2.309294 -20.90514
v -9.657095 -3.265836 -20.90514
v -10.96523 2.309297 -9.586224
v -10.97117 2.30968E-06 -20.90514
v -10.96523 2.309297 -20.90514
v -10.97117 -5.51343E-07 -9.586224
v -10.96523 -2.309295 -20.90514
v -10.96523 -2.309296 -9.586224
v -10.96523 -2.309296 -9.586224
v -9.657095 -3.265838 -9.586224
v -9.657095 -3.265836 -20.90514
v -10.96523 -2.309295 -20.90514
v 10.01463 2.309294 20.90514
v 10.97117 -1.817942E-06 20.90514
v 10.01463 -2.309298 20.90514
v 7.705335 3.265836 20.90514
v 7.705335 -3.26584 20.90514
v 5.39604 2.309294 20.90514
v 5.396039 -2.309298 20.90514
v 4.439497 -1.519918E-06 20.90514
vt 0 0
vt 0 0
vt 0 0
vt 0 0
vt 0 0
vt 0 0
vt 0 0
vt 0 0
vt 0 0
vt 0 0
vt 0 0
vt 0 0
vt 0 0
vt 0 0
vt 0 0
vt 0 0
vt 0 0
vt 0 0
vt 0 0
vt 0 0
vt 0 0
vt 0 0
vt 0 0
vt 0 0
vt 0 0
vt 0 0
vt 0 0
vt 0 0
vt 0 0
vt 0 0
vt 0 0
vt 0 0
vt 0 0
vt 0 0
vt 0 0
vt 0 0
vt 0 0
vt 0 0
vt 0 0
vt 0 0
vt 0 0
vt 0 0
vt 0 0
vt 0 0
vt 0 0
vt 0 0
vt 0 0
vt 0 0
vt 0 0
vt 0 0
vt 0 0
vt 0 0
vt 0 0
vt 0 0
vt 0 0
vt 0 0
vt 0 0
vt 0 0
vt 0 0
vt 0 0
vt 0 0
vt 0 0
vt 0 0
vt 0 0
vt 0 0
vt 0 0
vt 0 0
vt 0 0
vt 0 0
vt 0 0
vt 0 0
vt 0 0
vt 0 0
vt 0 0
vt 0 0
vt 0 0
vt 0 0
vt 0 0
vt 0 0
vt 0 0
vt 0 0
vt 0 0
vt 0 0
vt 0 0
vt 0 0
vt 0 0
vt 0 0
vt 0 0
vt 0 0
vt 0 0
vt 0 0
vt 0 0
vt 0 0
vt 0 0
vt 0 0
vt 0 0
vt 0 0
vt 0 0
vt 0 0
vt 0 0
vt 0 0
vt 0 0
vt 0 0
vt 0 0
vt 0 0
vt 0 0
vt 0 0
vt 0 0
vt 0 0
vt 0 0
vt 0 0
vt 0 0
vt 0 0
vt 0 0
vt 0 0
vt 0 0
vt 0 0
vt 0 0
vt 0 0
vt 0 0
vt 0 0
vt 0 0
vt 0 0
vt 0 0
vt 0 0
vt 0 0
vt 0 0
vt 0 0
vt 0 0
vt 0 0
vt 0 0
vt 0 0
vt 0 0
vt 0 0
vt 0 0
vt 0 0
vt 0 0
vt 0 0
vt 0 0
vt 0 0
vt 0 0
vt 0 0
vt 0 0
vt 0 0
vt 0 0
vt 0 0
vt 0 0
vt 0 0
vt 0 0
vt 0 0
vt 0 0
vt 0 0
vt 0 0
vt 0 0
vt 0 0
vt 0 0
vt 0 0
vt 0 0
vt 0 0
vt 0 0
vt 0 0
vt 0 0
vt 0 0
vt 0 0
vt 0 0
vt 0 0
vt 0 0
vt 0 0
vt 0 0
vt 0 0
vt 0 0
vt 0 0
vt 0 0
vt 0 0
vt 0 0
vt 0 0
vt 0 0
vt 0 0
vt 0 0
vt 0 0
vt 0 0
vt 0 0
vt 0 0
vt 0 0
vt 0.5698242 0.1588135
vt 0.5756836 0.1273193
vt 0.5698242 0.09570313
vt 0.5561523 0.171875
vt 0.5561523 0.0826416
vt 0.5429688 0.1588135
vt 0.5429688 0.09570313
vt 0.5371094 0.1273193
vn 0.3056641 0.9521484 0
vn 0.3056641 0.9521484 0
vn 0.4819336 0.8764648 0
vn 0.4819336 0.8764648 0
vn 0.9604492 0.2788086 0
vn 0.8764648 0.4819336 0
vn 0.8764648 0.4819336 0
vn 0.9604492 0.2788086 0
vn 0.4819336 0.8764648 0
vn 0.2875977 0.9575195 0
vn 0.3056641 0.9521484 0
vn 0.4819336 0.8764648 0
vn -0.4819336 0.8764648 0
vn -0.4819336 0.8764648 0
vn -0.2521973 0.9677734 0
vn -0.2521973 0.9677734 0
vn -0.2705078 0.9628906 0
vn -0.4819336 0.8764648 0
vn -0.4819336 0.8764648 0
vn -0.2521973 0.9677734 0
vn 0.8764648 -0.4819336 0
vn 0.9604492 -0.2788086 0
vn 0.9604492 -0.2788086 0
vn 0.8764648 -0.4819336 0
vn 0.4819336 -0.8764648 0
vn 0.4819336 -0.8764648 0
vn 0.3056641 -0.9521484 0
vn 0.3056641 -0.9521484 0
vn 0.3056641 0.9521484 0
vn 0.3310547 0.9438477 0
vn 0.4819336 0.8764648 0
vn 0.4819336 0.8764648 0
vn -0.2521973 -0.9677734 0
vn -0.2521973 -0.9677734 0
vn -0.4819336 -0.8764648 0
vn -0.4819336 -0.8764648 0
vn -0.8764648 0.4819336 0
vn -0.9604492 0.2788086 0
vn -0.9604492 0.2788086 0
vn -0.8764648 0.4819336 0
vn 0.2875977 -0.9575195 0
vn 0.4819336 -0.8764648 0
vn 0.4819336 -0.8764648 0
vn 0.3056641 -0.9521484 0
vn -0.08862305 0.9960938 0
vn -0.08862305 0.9960938 0
vn 0.05532837 0.9985352 0
vn 0.02854919 0.9995117 0
vn -0.9604492 -0.2788086 0
vn -0.8764648 -0.4819336 0
vn -0.8764648 -0.4819336 0
vn -0.9604492 -0.2788086 0
vn -0.4819336 -0.8764648 0
vn -0.2705078 -0.9628906 0
vn -0.2521973 -0.9677734 0
vn -0.4819336 -0.8764648 0
vn 0.9604492 0.2788086 0
vn 0.8764648 0.4819336 0
vn 0.8764648 0.4819336 0
vn 0.9604492 0.2788086 0
vn 0.4819336 0.8764648 0
vn 0.3056641 0.9521484 0
vn 0.3056641 0.9521484 0
vn 0.4819336 0.8764648 0
vn -0.6904297 0.7231445 0
vn -0.6904297 0.7231445 0
vn -0.5166016 0.8564453 0
vn -0.5166016 0.8564453 0
vn 0.8764648 -0.4819336 0
vn 0.9604492 -0.2788086 0
vn 0.9604492 -0.2788086 0
vn 0.8764648 -0.4819336 0
vn 0 0 1
vn 0 0 1
vn 0 0 1
vn 0 0 1
vn 0 0 1
vn 0 0 1
vn 0 0 1
vn 0 0 1
vn 0 0 1
vn 0 0 1
vn 0.3056641 -0.9521484 0
vn 0.4819336 -0.8764648 0
vn 0.4819336 -0.8764648 0
vn 0.3056641 -0.9521484 0
vn 0.02854919 0.9995117 0
vn -0.08868408 0.9960938 0
vn -0.08868408 0.9960938 0
vn 0.02854919 0.9995117 0
vn 0.9604492 0.2788086 0
vn 0.8764648 0.4819336 0
vn 0.8764648 0.4819336 0
vn 0.9604492 0.2788086 0
vn 0.8764648 -0.4819336 0
vn 0.9604492 -0.2788086 0
vn 0.9604492 -0.2788086 0
vn 0.8764648 -0.4819336 0
vn 0 0 -1
vn 0 0 -1
vn 0 0 -1
vn 0 0 -1
vn 0 0 -1
vn 0 0 -1
vn 0 0 -1
vn 0 0 -1
vn 0 0 -1
vn 0 0 -1
vn -0.8764648 0.4819336 0
vn -0.9604492 0.2788086 0
vn -0.9604492 0.2788086 0
vn -0.8764648 0.4819336 0
vn 0.02854919 -0.9995117 0
vn -0.08868408 -0.9960938 0
vn -0.08868408 -0.9960938 0
vn 0.02854919 -0.9995117 0
vn -0.5166016 0.855957 0
vn -0.690918 0.7231445 0
vn -0.690918 0.7231445 0
vn -0.5166016 0.855957 0
vn -0.9604492 -0.2788086 0
vn -0.8764648 -0.4819336 0
vn -0.8764648 -0.4819336 0
vn -0.9604492 -0.2788086 0
vn 0.9604492 0.2788086 0
vn 0.8764648 0.4819336 0
vn 0.8764648 0.4819336 0
vn 0.9604492 0.2788086 0
vn -0.9912109 0.1326904 0
vn -1 0.001688957 0
vn -0.9912109 0.1326904 0
vn -1 0.001688957 0
vn -0.9912109 -0.1326904 0
vn -0.9912109 -0.1326904 0
vn 0.8764648 -0.4819336 0
vn 0.9604492 -0.2788086 0
vn 0.9604492 -0.2788086 0
vn 0.8764648 -0.4819336 0
vn -0.690918 -0.7231445 0
vn -0.5166016 -0.855957 0
vn -0.5166016 -0.855957 0
vn -0.690918 -0.7231445 0
vn 0 0 1
vn 0 0 1
vn 0 0 1
vn 0 0 1
vn 0 0 1
vn 0 0 1
vn 0 0 1
vn 0 0 1
vn 0 0 1
vn 0 0 1
vn 0.3056641 -0.9521484 0
vn 0.4819336 -0.8764648 0
vn 0.4819336 -0.8764648 0
vn 0.3310547 -0.9438477 0
vn 0.05532837 -0.9985352 0
vn -0.08862305 -0.9960938 0
vn -0.08862305 -0.9960938 0
vn 0.02854919 -0.9995117 0
vn 0 0 -1
vn 0 0 -1
vn 0 0 -1
vn 0 0 -1
vn 0 0 -1
vn 0 0 -1
vn 0 0 -1
vn 0 0 -1
vn 0 0 -1
vn 0 0 -1
vn 0 0 -1
vn 0 0 -1
vn 0 0 -1
vn 0 0 -1
vn -0.9912109 0.1329346 0
vn -1 0.001846313 0
vn -0.9912109 0.1329346 0
vn -1 0.001846313 0
vn -0.9912109 -0.1329346 0
vn -0.9912109 -0.1329346 0
vn -0.6904297 -0.7231445 0
vn -0.5166016 -0.8564453 0
vn -0.5166016 -0.8564453 0
vn -0.6904297 -0.7231445 0
vn 0 0 1
vn 0 0 1
vn 0 0 1
vn 0 0 1
vn 0 0 1
vn 0 0 1
vn 0 0 1
vn 0 0 1
g pCube5_0
f 3/3/3 2/2/2 1/1/1
f 4/4/4 3/3/3 1/1/1
f 7/7/7 6/6/6 5/5/5
f 8/8/8 7/7/7 5/5/5
f 11/11/11 10/10/10 9/9/9
f 12/12/12 11/11/11 9/9/9
f 15/15/15 14/14/14 13/13/13
f 16/16/16 15/15/15 13/13/13
f 19/19/19 18/18/18 17/17/17
f 20/20/20 19/19/19 17/17/17
f 23/23/23 22/22/22 21/21/21
f 24/24/24 23/23/23 21/21/21
f 27/27/27 26/26/26 25/25/25
f 28/28/28 27/27/27 25/25/25
f 31/31/31 30/30/30 29/29/29
f 32/32/32 31/31/31 29/29/29
f 35/35/35 34/34/34 33/33/33
f 36/36/36 35/35/35 33/33/33
f 39/39/39 38/38/38 37/37/37
f 40/40/40 39/39/39 37/37/37
f 43/43/43 42/42/42 41/41/41
f 44/44/44 43/43/43 41/41/41
f 47/47/47 46/46/46 45/45/45
f 48/48/48 47/47/47 45/45/45
f 51/51/51 50/50/50 49/49/49
f 52/52/52 51/51/51 49/49/49
f 55/55/55 54/54/54 53/53/53
f 56/56/56 55/55/55 53/53/53
f 59/59/59 58/58/58 57/57/57
f 60/60/60 59/59/59 57/57/57
f 63/63/63 62/62/62 61/61/61
f 64/64/64 63/63/63 61/61/61
f 67/67/67 66/66/66 65/65/65
f 68/68/68 67/67/67 65/65/65
f 71/71/71 70/70/70 69/69/69
f 72/72/72 71/71/71 69/69/69
f 75/75/75 74/74/74 73/73/73
f 74/74/74 76/76/76 73/73/73
f 73/73/73 76/76/76 77/77/77
f 76/76/76 78/78/78 77/77/77
f 77/77/77 78/78/78 79/79/79
f 78/78/78 80/80/80 79/79/79
f 79/79/79 80/80/80 81/81/81
f 80/80/80 82/82/82 81/81/81
f 85/85/85 84/84/84 83/83/83
f 86/86/86 85/85/85 83/83/83
f 89/89/89 88/88/88 87/87/87
f 90/90/90 89/89/89 87/87/87
f 93/93/93 92/92/92 91/91/91
f 94/94/94 93/93/93 91/91/91
f 97/97/97 96/96/96 95/95/95
f 98/98/98 97/97/97 95/95/95
f 101/101/101 100/100/100 99/99/99
f 102/102/102 101/101/101 99/99/99
f 103/103/103 101/101/101 102/102/102
f 104/104/104 103/103/103 102/102/102
f 105/105/105 103/103/103 104/104/104
f 106/106/106 105/105/105 104/104/104
f 107/107/107 105/105/105 106/106/106
f 108/108/108 107/107/107 106/106/106
f 111/111/111 110/110/110 109/109/109
f 112/112/112 111/111/111 109/109/109
f 115/115/115 114/114/114 113/113/113
f 116/116/116 115/115/115 113/113/113
f 119/119/119 118/118/118 117/117/117
f 120/120/120 119/119/119 117/117/117
f 123/123/123 122/122/122 121/121/121
f 124/124/124 123/123/123 121/121/121
f 127/127/127 126/126/126 125/125/125
f 128/128/128 127/127/127 125/125/125
f 131/131/131 130/130/130 129/129/129
f 130/130/130 132/132/132 129/129/129
f 130/130/130 133/133/133 132/132/132
f 133/133/133 134/134/134 132/132/132
f 137/137/137 136/136/136 135/135/135
f 138/138/138 137/137/137 135/135/135
f 141/141/141 140/140/140 139/139/139
f 142/142/142 141/141/141 139/139/139
f 145/145/145 144/144/144 143/143/143
f 144/144/144 146/146/146 143/143/143
f 143/143/143 146/146/146 147/147/147
f 146/146/146 148/148/148 147/147/147
f 147/147/147 148/148/148 149/149/149
f 148/148/148 150/150/150 149/149/149
f 149/149/149 150/150/150 151/151/151
f 150/150/150 152/152/152 151/151/151
f 155/155/155 154/154/154 153/153/153
f 156/156/156 155/155/155 153/153/153
f 159/159/159 158/158/158 157/157/157
f 160/160/160 159/159/159 157/157/157
f 163/163/163 162/162/162 161/161/161
f 164/164/164 163/163/163 161/161/161
f 161/161/161 165/165/165 164/164/164
f 166/166/166 165/165/165 161/161/161
f 167/167/167 165/165/165 166/166/166
f 168/168/168 165/165/165 167/167/167
f 169/169/169 163/163/163 164/164/164
f 170/170/170 165/165/165 168/168/168
f 171/171/171 169/169/169 164/164/164
f 164/164/164 165/165/165 171/171/171
f 172/172/172 169/169/169 171/171/171
f 173/173/173 165/165/165 170/170/170
f 171/171/171 165/165/165 173/173/173
f 173/173/173 172/172/172 171/171/171
f 170/170/170 174/174/174 173/173/173
f 174/174/174 172/172/172 173/173/173
f 177/177/177 176/176/176 175/175/175
f 176/176/176 178/178/178 175/175/175
f 176/176/176 179/179/179 178/178/178
f 179/179/179 180/180/180 178/178/178
f 183/183/183 182/182/182 181/181/181
f 184/184/184 183/183/183 181/181/181
g pCube5_1
f 187/187/187 186/186/186 185/185/185
f 185/185/185 188/188/188 187/187/187
f 188/188/188 189/189/189 187/187/187
f 188/188/188 190/190/190 189/189/189
f 190/190/190 191/191/191 189/189/189
f 190/190/190 192/192/192 191/191/191
